<svg width="24" height="24" viewBox="0 0 24 24" fill="none" xmlns="http://www.w3.org/2000/svg">
<g clip-path="url(#clip0_46_586)">
<path d="M0 0H24V24H0V0Z" fill="#003399"/>
<path d="M12 3.16895L11.6167 4.44667L12.2556 4.57445L12 3.16895Z" fill="#FFCC00" stroke="#FFCC00" stroke-width="0.25"/>
<path d="M12 3.16895L12.3833 4.44667L11.7444 4.57445L12 3.16895Z" fill="#FFCC00" stroke="#FFCC00" stroke-width="0.25"/>
<path d="M13.2151 4.05181L11.8815 4.0821L11.9574 4.72918L13.2151 4.05181Z" fill="#FFCC00" stroke="#FFCC00" stroke-width="0.25"/>
<path d="M13.2155 4.0517L12.1188 4.8111L11.7999 4.24299L13.2155 4.0517Z" fill="#FFCC00" stroke="#FFCC00" stroke-width="0.25"/>
<path d="M12.7509 5.48031L12.31 4.2213L11.718 4.49345L12.7509 5.48031Z" fill="#FFCC00" stroke="#FFCC00" stroke-width="0.25"/>
<path d="M12.751 5.48026L11.6899 4.67186L12.1316 4.19298L12.751 5.48026Z" fill="#FFCC00" stroke="#FFCC00" stroke-width="0.25"/>
<path d="M10.7849 4.05181L12.1185 4.0821L12.0426 4.72918L10.7849 4.05181Z" fill="#FFCC00" stroke="#FFCC00" stroke-width="0.25"/>
<path d="M10.7845 4.0517L11.8812 4.8111L12.2001 4.24299L10.7845 4.0517Z" fill="#FFCC00" stroke="#FFCC00" stroke-width="0.25"/>
<path d="M11.2491 5.48031L11.69 4.2213L12.282 4.49345L11.2491 5.48031Z" fill="#FFCC00" stroke="#FFCC00" stroke-width="0.25"/>
<path d="M11.249 5.48026L12.3101 4.67186L11.8684 4.19298L11.249 5.48026Z" fill="#FFCC00" stroke="#FFCC00" stroke-width="0.25"/>
<path d="M12 18.5017L11.6167 19.7794L12.2556 19.9072L12 18.5017Z" fill="#FFCC00" stroke="#FFCC00" stroke-width="0.25"/>
<path d="M12 18.5017L12.3833 19.7794L11.7444 19.9072L12 18.5017Z" fill="#FFCC00" stroke="#FFCC00" stroke-width="0.25"/>
<path d="M13.2151 19.3846L11.8815 19.4149L11.9574 20.0619L13.2151 19.3846Z" fill="#FFCC00" stroke="#FFCC00" stroke-width="0.25"/>
<path d="M13.2155 19.3845L12.1188 20.1439L11.7999 19.5758L13.2155 19.3845Z" fill="#FFCC00" stroke="#FFCC00" stroke-width="0.25"/>
<path d="M12.7509 20.8131L12.31 19.5541L11.718 19.8262L12.7509 20.8131Z" fill="#FFCC00" stroke="#FFCC00" stroke-width="0.25"/>
<path d="M12.751 20.8131L11.6899 20.0047L12.1316 19.5259L12.751 20.8131Z" fill="#FFCC00" stroke="#FFCC00" stroke-width="0.25"/>
<path d="M10.7849 19.3846L12.1185 19.4149L12.0426 20.0619L10.7849 19.3846Z" fill="#FFCC00" stroke="#FFCC00" stroke-width="0.25"/>
<path d="M10.7845 19.3845L11.8812 20.1439L12.2001 19.5758L10.7845 19.3845Z" fill="#FFCC00" stroke="#FFCC00" stroke-width="0.25"/>
<path d="M11.2491 20.8131L11.69 19.5541L12.282 19.8262L11.2491 20.8131Z" fill="#FFCC00" stroke="#FFCC00" stroke-width="0.25"/>
<path d="M11.249 20.8131L12.3101 20.0047L11.8684 19.5259L11.249 20.8131Z" fill="#FFCC00" stroke="#FFCC00" stroke-width="0.25"/>
<path d="M4.33351 10.8353L3.9502 12.1131L4.58906 12.2408L4.33351 10.8353Z" fill="#FFCC00" stroke="#FFCC00" stroke-width="0.25"/>
<path d="M4.33299 10.8353L4.71631 12.1131L4.07744 12.2408L4.33299 10.8353Z" fill="#FFCC00" stroke="#FFCC00" stroke-width="0.25"/>
<path d="M5.54912 11.7184L4.21547 11.7487L4.29137 12.3958L5.54912 11.7184Z" fill="#FFCC00" stroke="#FFCC00" stroke-width="0.25"/>
<path d="M5.54903 11.7185L4.45229 12.4778L4.13335 11.9097L5.54903 11.7185Z" fill="#FFCC00" stroke="#FFCC00" stroke-width="0.25"/>
<path d="M5.08442 13.1469L4.6435 11.8879L4.05155 12.1601L5.08442 13.1469Z" fill="#FFCC00" stroke="#FFCC00" stroke-width="0.25"/>
<path d="M5.08453 13.1469L4.02338 12.3385L4.46513 11.8596L5.08453 13.1469Z" fill="#FFCC00" stroke="#FFCC00" stroke-width="0.25"/>
<path d="M3.11885 11.7184L4.4525 11.7487L4.3766 12.3958L3.11885 11.7184Z" fill="#FFCC00" stroke="#FFCC00" stroke-width="0.25"/>
<path d="M3.11894 11.7185L4.21568 12.4778L4.53462 11.9097L3.11894 11.7185Z" fill="#FFCC00" stroke="#FFCC00" stroke-width="0.25"/>
<path d="M3.58306 13.1469L4.02398 11.8879L4.61593 12.1601L3.58306 13.1469Z" fill="#FFCC00" stroke="#FFCC00" stroke-width="0.25"/>
<path d="M3.58296 13.1469L4.6441 12.3385L4.20235 11.8596L3.58296 13.1469Z" fill="#FFCC00" stroke="#FFCC00" stroke-width="0.25"/>
<path d="M7.50971 6.56534L8.57085 5.75695L8.12911 5.27806L7.50971 6.56534Z" fill="#FFCC00" stroke="#FFCC00" stroke-width="0.25"/>
<path d="M7.50982 6.56527L7.95074 5.30626L8.54269 5.57841L7.50982 6.56527Z" fill="#FFCC00" stroke="#FFCC00" stroke-width="0.25"/>
<path d="M7.04521 5.13679L8.14195 5.89618L8.46089 5.32807L7.04521 5.13679Z" fill="#FFCC00" stroke="#FFCC00" stroke-width="0.25"/>
<path d="M7.04512 5.1369L8.37877 5.16718L8.30287 5.81426L7.04512 5.1369Z" fill="#FFCC00" stroke="#FFCC00" stroke-width="0.25"/>
<path d="M8.26076 4.25403L7.87744 5.53176L8.51631 5.65953L8.26076 4.25403Z" fill="#FFCC00" stroke="#FFCC00" stroke-width="0.25"/>
<path d="M8.26121 4.25403L8.64453 5.53176L8.00567 5.65953L8.26121 4.25403Z" fill="#FFCC00" stroke="#FFCC00" stroke-width="0.25"/>
<path d="M9.01177 6.56546L7.95063 5.75707L8.39238 5.27818L9.01177 6.56546Z" fill="#FFCC00" stroke="#FFCC00" stroke-width="0.25"/>
<path d="M9.01167 6.5654L8.57075 5.30638L7.97879 5.57853L9.01167 6.5654Z" fill="#FFCC00" stroke="#FFCC00" stroke-width="0.25"/>
<path d="M9.4753 5.13679L8.37856 5.89618L8.05962 5.32807L9.4753 5.13679Z" fill="#FFCC00" stroke="#FFCC00" stroke-width="0.25"/>
<path d="M9.47539 5.1369L8.14174 5.16718L8.21764 5.81426L9.47539 5.1369Z" fill="#FFCC00" stroke="#FFCC00" stroke-width="0.25"/>
<path d="M6.16938 9.4078L5.72846 8.14879L5.13651 8.42094L6.16938 9.4078Z" fill="#FFCC00" stroke="#FFCC00" stroke-width="0.25"/>
<path d="M6.16949 9.40775L5.10834 8.59935L5.55009 8.12047L6.16949 9.40775Z" fill="#FFCC00" stroke="#FFCC00" stroke-width="0.25"/>
<path d="M4.66743 9.40775L5.72857 8.59935L5.28682 8.12047L4.66743 9.40775Z" fill="#FFCC00" stroke="#FFCC00" stroke-width="0.25"/>
<path d="M4.66753 9.4078L5.10845 8.14879L5.70041 8.42094L4.66753 9.4078Z" fill="#FFCC00" stroke="#FFCC00" stroke-width="0.25"/>
<path d="M4.20341 7.97931L5.30015 8.73871L5.61909 8.1706L4.20341 7.97931Z" fill="#FFCC00" stroke="#FFCC00" stroke-width="0.25"/>
<path d="M4.20284 7.97918L5.53648 8.00946L5.46058 8.65654L4.20284 7.97918Z" fill="#FFCC00" stroke="#FFCC00" stroke-width="0.25"/>
<path d="M6.63301 7.97919L5.53627 8.73859L5.21733 8.17048L6.63301 7.97919Z" fill="#FFCC00" stroke="#FFCC00" stroke-width="0.25"/>
<path d="M6.6331 7.97918L5.29946 8.00946L5.37536 8.65654L6.6331 7.97918Z" fill="#FFCC00" stroke="#FFCC00" stroke-width="0.25"/>
<path d="M5.41844 7.09631L5.80176 8.37404L5.16289 8.50182L5.41844 7.09631Z" fill="#FFCC00" stroke="#FFCC00" stroke-width="0.25"/>
<path d="M5.41896 7.09631L5.03564 8.37404L5.67451 8.50182L5.41896 7.09631Z" fill="#FFCC00" stroke="#FFCC00" stroke-width="0.25"/>
<path d="M6.63554 15.6638L5.3019 15.694L5.3778 16.3411L6.63554 15.6638Z" fill="#FFCC00" stroke="#FFCC00" stroke-width="0.25"/>
<path d="M6.63545 15.6638L5.53871 16.4232L5.21977 15.855L6.63545 15.6638Z" fill="#FFCC00" stroke="#FFCC00" stroke-width="0.25"/>
<path d="M6.17133 17.0923L5.73042 15.8332L5.13846 16.1054L6.17133 17.0923Z" fill="#FFCC00" stroke="#FFCC00" stroke-width="0.25"/>
<path d="M6.17095 17.0922L5.10981 16.2838L5.55156 15.8049L6.17095 17.0922Z" fill="#FFCC00" stroke="#FFCC00" stroke-width="0.25"/>
<path d="M4.66938 17.0922L5.73052 16.2838L5.28877 15.8049L4.66938 17.0922Z" fill="#FFCC00" stroke="#FFCC00" stroke-width="0.25"/>
<path d="M4.66949 17.0923L5.11041 15.8332L5.70236 16.1054L4.66949 17.0923Z" fill="#FFCC00" stroke="#FFCC00" stroke-width="0.25"/>
<path d="M5.4199 14.7809L5.80322 16.0586L5.16436 16.1864L5.4199 14.7809Z" fill="#FFCC00" stroke="#FFCC00" stroke-width="0.25"/>
<path d="M5.41994 14.7809L5.03662 16.0586L5.67549 16.1864L5.41994 14.7809Z" fill="#FFCC00" stroke="#FFCC00" stroke-width="0.25"/>
<path d="M4.2043 15.6639L5.53795 15.6942L5.46205 16.3412L4.2043 15.6639Z" fill="#FFCC00" stroke="#FFCC00" stroke-width="0.25"/>
<path d="M4.20439 15.6639L5.30113 16.4233L5.62007 15.8552L4.20439 15.6639Z" fill="#FFCC00" stroke="#FFCC00" stroke-width="0.25"/>
<path d="M9.40849 18.2357L8.07485 18.2659L8.15075 18.913L9.40849 18.2357Z" fill="#FFCC00" stroke="#FFCC00" stroke-width="0.25"/>
<path d="M9.4084 18.2357L8.31166 18.9951L7.99272 18.4269L9.4084 18.2357Z" fill="#FFCC00" stroke="#FFCC00" stroke-width="0.25"/>
<path d="M8.94428 19.6642L8.50336 18.4051L7.91141 18.6773L8.94428 19.6642Z" fill="#FFCC00" stroke="#FFCC00" stroke-width="0.25"/>
<path d="M8.94439 19.6641L7.88325 18.8557L8.325 18.3768L8.94439 19.6641Z" fill="#FFCC00" stroke="#FFCC00" stroke-width="0.25"/>
<path d="M7.44233 19.6641L8.50347 18.8557L8.06172 18.3768L7.44233 19.6641Z" fill="#FFCC00" stroke="#FFCC00" stroke-width="0.25"/>
<path d="M7.44244 19.6642L7.88335 18.4051L8.47531 18.6773L7.44244 19.6642Z" fill="#FFCC00" stroke="#FFCC00" stroke-width="0.25"/>
<path d="M8.19285 17.3528L8.57617 18.6305L7.93731 18.7583L8.19285 17.3528Z" fill="#FFCC00" stroke="#FFCC00" stroke-width="0.25"/>
<path d="M8.19289 17.3528L7.80957 18.6305L8.44843 18.7583L8.19289 17.3528Z" fill="#FFCC00" stroke="#FFCC00" stroke-width="0.25"/>
<path d="M6.97774 18.2358L8.31138 18.2661L8.23548 18.9131L6.97774 18.2358Z" fill="#FFCC00" stroke="#FFCC00" stroke-width="0.25"/>
<path d="M6.97783 18.2358L8.07457 18.9952L8.39351 18.4271L6.97783 18.2358Z" fill="#FFCC00" stroke="#FFCC00" stroke-width="0.25"/>
<path d="M19.6665 10.8353L20.0498 12.1131L19.4109 12.2408L19.6665 10.8353Z" fill="#FFCC00" stroke="#FFCC00" stroke-width="0.25"/>
<path d="M19.667 10.8353L19.2837 12.1131L19.9226 12.2408L19.667 10.8353Z" fill="#FFCC00" stroke="#FFCC00" stroke-width="0.25"/>
<path d="M18.4509 11.7183L19.7845 11.7486L19.7086 12.3957L18.4509 11.7183Z" fill="#FFCC00" stroke="#FFCC00" stroke-width="0.25"/>
<path d="M18.451 11.7183L19.5477 12.4777L19.8667 11.9096L18.451 11.7183Z" fill="#FFCC00" stroke="#FFCC00" stroke-width="0.25"/>
<path d="M18.9156 13.1468L19.3565 11.8878L19.9485 12.1599L18.9156 13.1468Z" fill="#FFCC00" stroke="#FFCC00" stroke-width="0.25"/>
<path d="M18.9155 13.1468L19.9766 12.3384L19.5349 11.8595L18.9155 13.1468Z" fill="#FFCC00" stroke="#FFCC00" stroke-width="0.25"/>
<path d="M20.8811 11.7183L19.5475 11.7486L19.6234 12.3957L20.8811 11.7183Z" fill="#FFCC00" stroke="#FFCC00" stroke-width="0.25"/>
<path d="M20.8811 11.7183L19.7843 12.4777L19.4654 11.9096L20.8811 11.7183Z" fill="#FFCC00" stroke="#FFCC00" stroke-width="0.25"/>
<path d="M20.4169 13.1468L19.976 11.8878L19.3841 12.1599L20.4169 13.1468Z" fill="#FFCC00" stroke="#FFCC00" stroke-width="0.25"/>
<path d="M20.417 13.1468L19.3559 12.3384L19.7977 11.8595L20.417 13.1468Z" fill="#FFCC00" stroke="#FFCC00" stroke-width="0.25"/>
<path d="M16.4903 6.56534L15.4291 5.75695L15.8709 5.27806L16.4903 6.56534Z" fill="#FFCC00" stroke="#FFCC00" stroke-width="0.25"/>
<path d="M16.4902 6.56527L16.0493 5.30626L15.4573 5.57841L16.4902 6.56527Z" fill="#FFCC00" stroke="#FFCC00" stroke-width="0.25"/>
<path d="M16.9543 5.13679L15.8576 5.89618L15.5386 5.32807L16.9543 5.13679Z" fill="#FFCC00" stroke="#FFCC00" stroke-width="0.25"/>
<path d="M16.9544 5.1369L15.6207 5.16718L15.6966 5.81426L16.9544 5.1369Z" fill="#FFCC00" stroke="#FFCC00" stroke-width="0.25"/>
<path d="M15.7388 4.25403L16.1221 5.53176L15.4832 5.65953L15.7388 4.25403Z" fill="#FFCC00" stroke="#FFCC00" stroke-width="0.25"/>
<path d="M15.7383 4.25403L15.355 5.53176L15.9938 5.65953L15.7383 4.25403Z" fill="#FFCC00" stroke="#FFCC00" stroke-width="0.25"/>
<path d="M14.9882 6.56546L16.0494 5.75707L15.6076 5.27818L14.9882 6.56546Z" fill="#FFCC00" stroke="#FFCC00" stroke-width="0.25"/>
<path d="M14.9883 6.5654L15.4293 5.30638L16.0212 5.57853L14.9883 6.5654Z" fill="#FFCC00" stroke="#FFCC00" stroke-width="0.25"/>
<path d="M14.5247 5.13679L15.6214 5.89618L15.9404 5.32807L14.5247 5.13679Z" fill="#FFCC00" stroke="#FFCC00" stroke-width="0.25"/>
<path d="M14.5246 5.1369L15.8583 5.16718L15.7824 5.81426L14.5246 5.1369Z" fill="#FFCC00" stroke="#FFCC00" stroke-width="0.25"/>
<path d="M17.8306 9.4078L18.2715 8.14879L18.8635 8.42094L17.8306 9.4078Z" fill="#FFCC00" stroke="#FFCC00" stroke-width="0.25"/>
<path d="M17.8305 9.40775L18.8917 8.59935L18.4499 8.12047L17.8305 9.40775Z" fill="#FFCC00" stroke="#FFCC00" stroke-width="0.25"/>
<path d="M19.3326 9.40775L18.2714 8.59935L18.7132 8.12047L19.3326 9.40775Z" fill="#FFCC00" stroke="#FFCC00" stroke-width="0.25"/>
<path d="M19.3325 9.4078L18.8915 8.14879L18.2996 8.42094L19.3325 9.4078Z" fill="#FFCC00" stroke="#FFCC00" stroke-width="0.25"/>
<path d="M19.7966 7.97931L18.6998 8.73871L18.3809 8.1706L19.7966 7.97931Z" fill="#FFCC00" stroke="#FFCC00" stroke-width="0.25"/>
<path d="M19.7972 7.97918L18.4635 8.00946L18.5394 8.65654L19.7972 7.97918Z" fill="#FFCC00" stroke="#FFCC00" stroke-width="0.25"/>
<path d="M17.367 7.97919L18.4637 8.73859L18.7827 8.17048L17.367 7.97919Z" fill="#FFCC00" stroke="#FFCC00" stroke-width="0.25"/>
<path d="M17.3669 7.97918L18.7005 8.00946L18.6246 8.65654L17.3669 7.97918Z" fill="#FFCC00" stroke="#FFCC00" stroke-width="0.25"/>
<path d="M18.5816 7.09631L18.1982 8.37404L18.8371 8.50182L18.5816 7.09631Z" fill="#FFCC00" stroke="#FFCC00" stroke-width="0.25"/>
<path d="M18.581 7.09631L18.9644 8.37404L18.3255 8.50182L18.581 7.09631Z" fill="#FFCC00" stroke="#FFCC00" stroke-width="0.25"/>
<path d="M17.3645 15.6638L18.6981 15.694L18.6222 16.3411L17.3645 15.6638Z" fill="#FFCC00" stroke="#FFCC00" stroke-width="0.25"/>
<path d="M17.3645 15.6638L18.4613 16.4232L18.7802 15.855L17.3645 15.6638Z" fill="#FFCC00" stroke="#FFCC00" stroke-width="0.25"/>
<path d="M17.8287 17.0923L18.2696 15.8332L18.8615 16.1054L17.8287 17.0923Z" fill="#FFCC00" stroke="#FFCC00" stroke-width="0.25"/>
<path d="M17.829 17.0922L18.8902 16.2838L18.4484 15.8049L17.829 17.0922Z" fill="#FFCC00" stroke="#FFCC00" stroke-width="0.25"/>
<path d="M19.3306 17.0922L18.2695 16.2838L18.7112 15.8049L19.3306 17.0922Z" fill="#FFCC00" stroke="#FFCC00" stroke-width="0.25"/>
<path d="M19.3305 17.0923L18.8896 15.8332L18.2976 16.1054L19.3305 17.0923Z" fill="#FFCC00" stroke="#FFCC00" stroke-width="0.25"/>
<path d="M18.5801 14.7809L18.1968 16.0586L18.8356 16.1864L18.5801 14.7809Z" fill="#FFCC00" stroke="#FFCC00" stroke-width="0.25"/>
<path d="M18.5801 14.7809L18.9634 16.0586L18.3245 16.1864L18.5801 14.7809Z" fill="#FFCC00" stroke="#FFCC00" stroke-width="0.25"/>
<path d="M19.7957 15.6639L18.4621 15.6942L18.538 16.3412L19.7957 15.6639Z" fill="#FFCC00" stroke="#FFCC00" stroke-width="0.25"/>
<path d="M19.7956 15.6639L18.6989 16.4233L18.3799 15.8552L19.7956 15.6639Z" fill="#FFCC00" stroke="#FFCC00" stroke-width="0.25"/>
<path d="M14.5915 18.2357L15.9252 18.2659L15.8493 18.913L14.5915 18.2357Z" fill="#FFCC00" stroke="#FFCC00" stroke-width="0.25"/>
<path d="M14.5916 18.2357L15.6883 18.9951L16.0073 18.4269L14.5916 18.2357Z" fill="#FFCC00" stroke="#FFCC00" stroke-width="0.25"/>
<path d="M15.0557 19.6642L15.4966 18.4051L16.0886 18.6773L15.0557 19.6642Z" fill="#FFCC00" stroke="#FFCC00" stroke-width="0.25"/>
<path d="M15.0556 19.6641L16.1168 18.8557L15.675 18.3768L15.0556 19.6641Z" fill="#FFCC00" stroke="#FFCC00" stroke-width="0.25"/>
<path d="M16.5577 19.6641L15.4965 18.8557L15.9383 18.3768L16.5577 19.6641Z" fill="#FFCC00" stroke="#FFCC00" stroke-width="0.25"/>
<path d="M16.5576 19.6642L16.1166 18.4051L15.5247 18.6773L16.5576 19.6642Z" fill="#FFCC00" stroke="#FFCC00" stroke-width="0.25"/>
<path d="M15.8071 17.3528L15.4238 18.6305L16.0627 18.7583L15.8071 17.3528Z" fill="#FFCC00" stroke="#FFCC00" stroke-width="0.25"/>
<path d="M15.8071 17.3528L16.1904 18.6305L15.5516 18.7583L15.8071 17.3528Z" fill="#FFCC00" stroke="#FFCC00" stroke-width="0.25"/>
<path d="M17.0223 18.2358L15.6886 18.2661L15.7645 18.9131L17.0223 18.2358Z" fill="#FFCC00" stroke="#FFCC00" stroke-width="0.25"/>
<path d="M17.0222 18.2358L15.9254 18.9952L15.6065 18.4271L17.0222 18.2358Z" fill="#FFCC00" stroke="#FFCC00" stroke-width="0.25"/>
</g>
<defs>
<clipPath id="clip0_46_586">
<path d="M0 12C0 5.37258 5.37258 0 12 0C18.6274 0 24 5.37258 24 12C24 18.6274 18.6274 24 12 24C5.37258 24 0 18.6274 0 12Z" fill="white"/>
</clipPath>
</defs>
</svg>
