<svg width="24" height="24" viewBox="0 0 24 24" fill="none" xmlns="http://www.w3.org/2000/svg">
<g clip-path="url(#clip0_1046_3635)">
<path d="M16.1743 0.746376C14.8742 0.263986 13.4681 -6.10352e-05 12.0002 -6.10352e-05C10.5325 -6.10352e-05 9.12639 0.263986 7.82645 0.746283L7.30469 11.9999L7.82641 23.2536C9.12639 23.7359 10.5325 23.9999 12.0002 23.9999C13.4682 23.9999 14.8742 23.7359 16.1743 23.2535L16.696 11.9999L16.1743 0.746376Z" fill="#FFDA44"/>
<path d="M0 12.0003C0 17.1598 3.2565 21.5584 7.82611 23.2539V0.746643C3.2565 2.44221 0 6.84067 0 12.0003Z" fill="#D80027"/>
<path d="M23.9994 12.0003C23.9994 6.84067 20.7429 2.44221 16.1733 0.746643V23.2539C20.7429 21.5584 23.9994 17.1598 23.9994 12.0003Z" fill="#6DA544"/>
</g>
<defs>
<clipPath id="clip0_1046_3635">
<rect width="24" height="24" fill="white"/>
</clipPath>
</defs>
</svg>
