<svg width="24" height="24" viewBox="0 0 24 24" fill="none" xmlns="http://www.w3.org/2000/svg">
<g clip-path="url(#clip0_1046_3587)">
<path d="M0 12.0008C0 14.0797 0.528891 16.0351 1.45908 17.74L12 18.7835L22.5409 17.74C23.4711 16.0351 24 14.0797 24 12.0008C24 9.92192 23.4711 7.96658 22.5409 6.26169L12 5.2182L1.45908 6.26169C0.528891 7.96658 0 9.92192 0 12.0008Z" fill="#D80027"/>
<path d="M1.45898 6.26123H22.5408C20.5056 2.5311 16.5484 0.000366211 11.9999 0.000366211C7.45139 0.000366211 3.49425 2.5311 1.45898 6.26123Z" fill="#0052B4"/>
<path d="M11.9999 24.0008C16.5484 24.0008 20.5056 21.4701 22.5408 17.74H1.45898C3.49425 21.4701 7.45139 24.0008 11.9999 24.0008Z" fill="#0052B4"/>
<path d="M16.1745 14.3474V12.7822H15.131V10.6952L14.0876 9.65173L13.0441 10.6952V8.60824L12.0006 7.56476L10.9571 8.60824V10.6952L9.91361 9.65173L8.87013 10.6952V12.7822H7.82669V14.3474H6.7832V15.9126H17.218V14.3474H16.1745Z" fill="#F0F0F0"/>
</g>
<defs>
<clipPath id="clip0_1046_3587">
<rect width="24" height="24" fill="white"/>
</clipPath>
</defs>
</svg>
