<svg width="20" height="20" viewBox="0 0 20 20" fill="none" xmlns="http://www.w3.org/2000/svg">
<path d="M9.99976 5.83366V18.0559M9.99976 5.83366C9.99976 5.83366 8.98753 1.94531 6.11087 1.94531C5.03753 1.94531 4.16642 2.81642 4.16642 3.88976C4.16642 4.96309 5.03753 5.8342 6.11087 5.8342L9.99976 5.83366ZM9.99976 5.83366L13.8886 5.8342C14.962 5.8342 15.8331 4.96309 15.8331 3.88976C15.8331 2.81642 14.962 1.94531 13.8886 1.94531C11.012 1.94531 9.99976 5.83366 9.99976 5.83366ZM15.8331 9.16699V15.8337C15.8331 17.0614 14.8386 18.0559 13.6109 18.0559H6.38864C5.16087 18.0559 4.16642 17.0614 4.16642 15.8337V9.16699M3.05545 5.83366H16.9443C17.558 5.83366 18.0554 6.33112 18.0554 6.94477V8.05588C18.0554 8.66953 17.558 9.16699 16.9443 9.16699H3.05545C2.4418 9.16699 1.94434 8.66953 1.94434 8.05588V6.94477C1.94434 6.33112 2.4418 5.83366 3.05545 5.83366Z" stroke="url(#paint0_linear_137_556)" stroke-width="1.66667" stroke-linecap="round" stroke-linejoin="round"/>
<defs>
<linearGradient id="paint0_linear_137_556" x1="-2" y1="1.5" x2="19.5" y2="22" gradientUnits="userSpaceOnUse">
<stop stop-color="#3A29E9"/>
<stop offset="1" stop-color="#441783"/>
</linearGradient>
</defs>
</svg>
