<svg width="20" height="20" viewBox="0 0 20 20" fill="none" xmlns="http://www.w3.org/2000/svg">
<path d="M18.5173 7.48224C18.1895 7.16002 17.6618 7.16557 17.3384 7.49446C15.3895 9.48224 12.7829 10.5767 9.99955 10.5767C7.21621 10.5767 4.60955 9.48224 2.66066 7.49446C2.33844 7.16669 1.81066 7.16113 1.48177 7.48224C1.15288 7.80446 1.14732 8.33224 1.46955 8.66113C2.04177 9.24446 2.66288 9.76113 3.32399 10.2089L2.3451 11.81C2.1051 12.2022 2.22844 12.7156 2.62177 12.9556C2.75732 13.0389 2.90732 13.0778 3.05621 13.0778C3.33621 13.0778 3.61066 12.9367 3.76732 12.6789L4.77399 11.0322C5.52732 11.4 6.31621 11.6856 7.13399 11.8867L6.76399 13.7256C6.67288 14.1767 6.96621 14.6167 7.41621 14.7067C7.47177 14.7178 7.52732 14.7234 7.58177 14.7234C7.97066 14.7234 8.31844 14.45 8.39732 14.0545L8.77399 12.1822C9.17844 12.2234 9.58732 12.2456 9.99955 12.2456C10.4118 12.2456 10.8207 12.2234 11.2251 12.1822L11.6018 14.0545C11.6818 14.45 12.0295 14.7234 12.4173 14.7234C12.4718 14.7234 12.5273 14.7178 12.5829 14.7067C13.034 14.6156 13.3262 14.1767 13.2351 13.7256L12.8651 11.8867C13.6829 11.6856 14.4718 11.4 15.2251 11.0322L16.2318 12.6789C16.3884 12.9356 16.6629 13.0778 16.9429 13.0778C17.0918 13.0778 17.2418 13.0378 17.3773 12.9556C17.7707 12.7156 17.894 12.2022 17.654 11.81L16.6751 10.2089C17.3351 9.76113 17.9573 9.24558 18.5295 8.66113C18.8518 8.33335 18.8462 7.80446 18.5173 7.48224Z" fill="#1C1F21"/>
</svg>
