<svg width="20" height="20" viewBox="0 0 20 20" fill="none" xmlns="http://www.w3.org/2000/svg">
<path d="M16.6759 6.75873L17.6548 5.15762C17.8948 4.76428 17.7715 4.25206 17.3793 4.01206C16.9859 3.77317 16.4737 3.8954 16.2337 4.28762L15.2259 5.93428C14.4726 5.56651 13.6837 5.28095 12.8659 5.07984L13.2359 3.24095C13.3271 2.78984 13.0337 2.34984 12.5837 2.25984C12.1337 2.17317 11.6926 2.46095 11.6026 2.91206L11.2259 4.78428C10.8215 4.74317 10.4126 4.72095 10.0004 4.72095C9.58817 4.72095 9.17928 4.74317 8.77483 4.78428L8.39817 2.91206C8.30706 2.46095 7.86483 2.17206 7.41706 2.25984C6.96594 2.35095 6.67372 2.78984 6.76483 3.24095L7.13483 5.07984C6.31706 5.28095 5.52817 5.56651 4.77483 5.93428L3.76706 4.28762C3.52817 3.8954 3.01483 3.77317 2.6215 4.01206C2.22928 4.25206 2.10594 4.7654 2.34594 5.15762L3.32483 6.75873C2.66483 7.2054 2.04261 7.72206 1.4715 8.30539C1.14928 8.63317 1.15483 9.16206 1.48372 9.48428C1.8115 9.80651 2.33928 9.80095 2.66261 9.47206C4.6115 7.48428 7.21817 6.38984 10.0015 6.38984C12.7848 6.38984 15.3915 7.48428 17.3404 9.47206C17.5037 9.63873 17.7193 9.72206 17.9359 9.72206C18.1459 9.72206 18.3571 9.64317 18.5193 9.48428C18.8482 9.16206 18.8537 8.63428 18.5315 8.30539C17.9593 7.72206 17.3382 7.2054 16.6782 6.75873H16.6759Z" fill="#101828"/>
<path d="M10.0002 15.5554C12.148 15.5554 13.8891 13.8143 13.8891 11.6665C13.8891 9.5187 12.148 7.77759 10.0002 7.77759C7.85244 7.77759 6.11133 9.5187 6.11133 11.6665C6.11133 13.8143 7.85244 15.5554 10.0002 15.5554Z" fill="#101828"/>
</svg>
