<svg width="32" height="32" viewBox="0 0 32 32" fill="none" xmlns="http://www.w3.org/2000/svg">
  <!-- Marco exterior -->
  <path d="M4 10V7C4 5.34315 5.34315 4 7 4H10" stroke="#202020" stroke-width="2.5" stroke-linecap="round"/>
  <path d="M22 4H25C26.6569 4 28 5.34315 28 7V10" stroke="#202020" stroke-width="2.5" stroke-linecap="round"/>
  <path d="M28 22V25C28 26.6569 26.6569 28 25 28H22" stroke="#202020" stroke-width="2.5" stroke-linecap="round"/>
  <path d="M10 28H7C5.34315 28 4 26.6569 4 25V22" stroke="#202020" stroke-width="2.5" stroke-linecap="round"/>
  <!-- Ojos -->
  <path d="M11 12V14.5" stroke="#202020" stroke-width="2.5" stroke-linecap="round"/>
  <path d="M21 12V14.5" stroke="#202020" stroke-width="2.5" stroke-linecap="round"/>
  <!-- Nariz -->
  <path d="M16 12V17H14.5" stroke="#202020" stroke-width="2.5" stroke-linecap="round" stroke-linejoin="round"/>
  <!-- Sonrisa -->
  <path d="M12 20C12.8 21.5 14.2 22.5 16 22.5C17.8 22.5 19.2 21.5 20 20" stroke="#202020" stroke-width="2.5" stroke-linecap="round"/>
</svg>
