<svg width="24" height="24" viewBox="0 0 24 24" fill="none" xmlns="http://www.w3.org/2000/svg">
<path d="M5 5.625H19C20.3117 5.625 21.375 6.68832 21.375 8V16C21.375 17.3117 20.3117 18.375 19 18.375H5C3.68832 18.375 2.625 17.3117 2.625 16V8C2.625 6.68832 3.68832 5.625 5 5.625Z" stroke="#101828" stroke-width="1.25" stroke-linecap="round" stroke-linejoin="round"/>
<path d="M8.67676 9.55664L9.99512 13.8691L10.0537 14.0635H8.90234L8.86914 13.958L8.62402 13.165H7.22266L6.9502 14.0635H5.79688L7.17383 9.55664L7.20703 9.4502H8.64453L8.67676 9.55664ZM13.3555 10.5117H11.9961V14.0635H10.8818V10.5117H9.52148V9.4502H13.3555V10.5117ZM14.5527 9.53418L15.8438 12.126L17.1348 9.53418L17.1768 9.4502H18.1504V14.0635H17.0898V11.9873L16.1221 13.9785L16.0811 14.0635H15.6064L15.5654 13.9785L14.5986 11.9893V14.0635H13.5371V9.4502H14.5107L14.5527 9.53418ZM7.54492 12.1045H8.29688L7.91797 10.876L7.54492 12.1045ZM13.2061 10.3604L11.8457 10.3613H13.2061V10.3604ZM9.67188 10.3613H11.0312V10.3604L9.67188 10.3613Z" fill="#101828"/>
</svg>
