<svg width="24" height="24" viewBox="0 0 24 24" fill="none" xmlns="http://www.w3.org/2000/svg">
<path d="M17.7003 6C17.7003 6.37172 17.7003 6.55759 17.6696 6.71214C17.5434 7.34685 17.0472 7.843 16.4125 7.96926C16.2579 7.99999 16.0721 8 15.7004 8H6.90038C6.52866 8 6.3428 7.99999 6.18825 7.96926C5.55354 7.843 5.05739 7.34685 4.93113 6.71214C4.90039 6.55759 4.90039 6.37172 4.90039 6C4.90039 5.62827 4.90039 5.44242 4.93113 5.28786C5.05739 4.65315 5.55354 4.157 6.18825 4.03075C6.3428 4 6.52866 4 6.90038 4H15.7004C16.0721 4 16.2579 4 16.4125 4.03075C17.0472 4.157 17.5434 4.65315 17.6696 5.28786C17.7003 5.44242 17.7003 5.62827 17.7003 6ZM17.7003 6C18.4459 6 18.8186 6 19.1127 6.12179C19.5047 6.28418 19.8162 6.59566 19.9786 6.98771C20.1003 7.28173 20.1003 7.65449 20.1003 8.4V8.64C20.1003 9.53608 20.1003 9.98412 19.926 10.3264C19.7726 10.6274 19.5278 10.8722 19.2267 11.0256C18.8845 11.2 18.4365 11.2 17.5404 11.2H14.6604C13.7642 11.2 13.3162 11.2 12.974 11.3744C12.6729 11.5278 12.4281 11.7725 12.2748 12.0736C12.1004 12.4158 12.1004 12.8639 12.1004 13.76V14.3999M11.7804 20H12.4203C12.8684 20 13.0924 20 13.2636 19.9127C13.4141 19.836 13.5364 19.7137 13.6131 19.5632C13.7004 19.392 13.7004 19.168 13.7004 18.7199V15.68C13.7004 15.232 13.7004 15.0079 13.6131 14.8367C13.5364 14.6862 13.4141 14.5639 13.2636 14.4872C13.0924 14.3999 12.8684 14.3999 12.4203 14.3999H11.7804C11.3323 14.3999 11.1083 14.3999 10.9372 14.4872C10.7867 14.5639 10.6643 14.6862 10.5876 14.8367C10.5004 15.0079 10.5004 15.232 10.5004 15.68V18.7199C10.5004 19.168 10.5004 19.392 10.5876 19.5632C10.6643 19.7137 10.7867 19.836 10.9372 19.9127C11.1083 20 11.3323 20 11.7804 20Z" stroke="#101828" stroke-width="1.5" stroke-linecap="round" stroke-linejoin="round"/>
</svg>
