<?xml version="1.0" encoding="UTF-8"?>
<svg id="Capa_1" xmlns="http://www.w3.org/2000/svg" version="1.1" viewBox="0 0 24 24">
  <!-- Generator: Adobe Illustrator 30.0.0, SVG Export Plug-In . SVG Version: 2.1.1 Build 123)  -->
  <defs>
    <style>
      .st0 {
        fill: none;
        stroke: #000;
        stroke-linecap: round;
        stroke-linejoin: round;
        stroke-width: 2px;
      }
    </style>
  </defs>
  <path class="st0" d="M2.3,9.7h19.3"/>
  <path class="st0" d="M21.7,12.5"/>
  <path class="st0" d="M21.7,11.8v-4.1c0-1.5-1.2-2.7-2.7-2.7H5c-1.5,0-2.7,1.2-2.7,2.7v8.7c0,1.5,1.2,2.7,2.7,2.7h2.9"/>
  <g>
    <path d="M12.2,13.6h-1.2s0,0-.1,0l-1.1.7c0,0-.1.1-.1.2v1.3c0,0,0,.2.1.2,0,0,.2,0,.3,0l.8-.5v4.4c0,.1.1.2.2.2h1.2c.1,0,.2-.1.2-.2v-6.1c0-.1-.1-.2-.2-.2Z"/>
    <path d="M17.6,17.3c.2-.2.3-.4.4-.6,0-.2.1-.5.1-.8s-.1-.9-.3-1.2c-.2-.3-.5-.6-.8-.8-.7-.4-1.7-.4-2.4,0-.4.2-.7.5-.9.8-.2.3-.3.7-.3,1.2s.1.2.2.2h1.2c0,0,.1,0,.2,0s0-.1,0-.2c0-.1,0-.2,0-.3,0-.1.1-.2.3-.3.2-.1.5-.1.7,0,0,0,.2.1.2.2,0,.1,0,.2,0,.4s0,.2,0,.3c0,.1-.2.3-.3.4l-2.5,2.3c0,0,0,.1,0,.2v1c0,.1.1.2.2.2h4.2c.1,0,.2-.1.2-.2v-1.1c0-.1-.1-.2-.2-.2h-1.8l.9-.7c.2-.2.5-.4.6-.6Z"/>
    <path d="M22.8,17.1c-.1-.3-.4-.6-.6-.8,0,0-.2-.1-.3-.2l1-.9s0-.1,0-.2v-1.1c0-.1-.1-.2-.2-.2h-3.8c-.1,0-.2.1-.2.2v1.1c0,.1.1.2.2.2h1.7l-1.1.9c0,0-.1.2,0,.3l.5.9c0,0,0,.1.2.1,0,0,.1,0,.2,0,0,0,.1,0,.2,0,.2,0,.5,0,.7.2.1.1.2.3.2.5s0,.2,0,.3c0,.1-.1.2-.3.3-.2.1-.5.1-.8,0-.1,0-.2-.2-.2-.4,0,0,0-.1-.1-.2,0,0-.1,0-.2,0l-1.1.3c0,0-.1,0-.2.1,0,0,0,.1,0,.2,0,.3.3.6.5.9.2.2.5.4.8.6.3.1.6.2,1,.2s.8-.1,1.2-.3c.4-.2.6-.5.9-.8.2-.3.3-.7.3-1.2s0-.7-.2-1Z"/>
  </g>
  <path class="st0" d="M24.5,12.7"/>
</svg>