<svg width="24" height="20" viewBox="0 0 24 20" fill="none" xmlns="http://www.w3.org/2000/svg">
<path d="M21.9999 3.33334C21.9999 2.8731 21.6268 2.5 21.1666 2.5H13.8333C13.373 2.5 12.9999 2.8731 12.9999 3.33334C12.9999 3.79358 13.373 4.16667 13.8333 4.16667H21.1666C21.6268 4.16667 21.9999 3.79358 21.9999 3.33334Z" fill="#101828"/>
<path d="M21.9999 6.66634C21.9999 6.20611 21.6268 5.83301 21.1666 5.83301H13.8333C13.373 5.83301 12.9999 6.20611 12.9999 6.66634C12.9999 7.12658 13.373 7.49967 13.8333 7.49967H21.1666C21.6268 7.49967 21.9999 7.12658 21.9999 6.66634Z" fill="#101828"/>
<path d="M8 1.66699H3.99999C2.89543 1.66699 2 2.41318 2 3.33366V6.66699C2 7.58747 2.89543 8.33366 3.99999 8.33366H8C9.10456 8.33366 9.99999 7.58747 9.99999 6.66699V3.33366C9.99999 2.41318 9.10456 1.66699 8 1.66699Z" fill="#101828"/>
<path d="M8 11.667H3.99999C2.89543 11.667 2 12.4132 2 13.3337V16.667C2 17.5875 2.89543 18.3337 3.99999 18.3337H8C9.10456 18.3337 9.99999 17.5875 9.99999 16.667V13.3337C9.99999 12.4132 9.10456 11.667 8 11.667Z" fill="#101828"/>
<path d="M21.9999 13.3334C21.9999 12.8731 21.6268 12.5 21.1666 12.5H13.8333C13.373 12.5 12.9999 12.8731 12.9999 13.3334C12.9999 13.7936 13.373 14.1667 13.8333 14.1667H21.1666C21.6268 14.1667 21.9999 13.7936 21.9999 13.3334Z" fill="#101828"/>
<path d="M21.9999 16.6664C21.9999 16.2061 21.6268 15.833 21.1666 15.833H13.8333C13.373 15.833 12.9999 16.2061 12.9999 16.6664C12.9999 17.1266 13.373 17.4997 13.8333 17.4997H21.1666C21.6268 17.4997 21.9999 17.1266 21.9999 16.6664Z" fill="#101828"/>
</svg>
