<svg width="20" height="20" viewBox="0 0 20 20" fill="none" xmlns="http://www.w3.org/2000/svg">
<path d="M18.3333 2.5H10.8333V4.16667H18.3333V2.5Z" fill="#101828"/>
<path d="M18.3333 5.83301H10.8333V7.49967H18.3333V5.83301Z" fill="#101828"/>
<path d="M6.66669 1.66699H3.33335C2.41288 1.66699 1.66669 2.41318 1.66669 3.33366V6.66699C1.66669 7.58747 2.41288 8.33366 3.33335 8.33366H6.66669C7.58716 8.33366 8.33335 7.58747 8.33335 6.66699V3.33366C8.33335 2.41318 7.58716 1.66699 6.66669 1.66699Z" fill="#101828"/>
<path d="M6.66669 11.667H3.33335C2.41288 11.667 1.66669 12.4132 1.66669 13.3337V16.667C1.66669 17.5875 2.41288 18.3337 3.33335 18.3337H6.66669C7.58716 18.3337 8.33335 17.5875 8.33335 16.667V13.3337C8.33335 12.4132 7.58716 11.667 6.66669 11.667Z" fill="#101828"/>
<path d="M18.3333 12.5H10.8333V14.1667H18.3333V12.5Z" fill="#101828"/>
<path d="M18.3333 15.833H10.8333V17.4997H18.3333V15.833Z" fill="#101828"/>
</svg>
