<svg width="20" height="20" viewBox="0 0 20 20" fill="none" xmlns="http://www.w3.org/2000/svg">
<g clip-path="url(#clip0_242_5096)">
<path d="M6.87574 8.83445L5.31573 8.25112C5.82351 6.89223 6.89351 5.82223 8.2524 5.31445L8.83573 6.87556C7.93018 7.21445 7.21574 7.92779 6.87574 8.83445Z" fill="#101828"/>
<path d="M13.1243 8.83445C12.7843 7.9289 12.071 7.21445 11.1643 6.87556L11.7476 5.31445C13.1065 5.82223 14.1765 6.89223 14.6843 8.25112L13.1243 8.83445Z" fill="#101828"/>
<path d="M11.7487 14.6855L11.1653 13.1244C12.0709 12.7855 12.7853 12.0722 13.1253 11.1655L14.6853 11.7489C14.1776 13.1078 13.1076 14.1777 11.7487 14.6855Z" fill="#101828"/>
<path d="M8.25136 14.6855C6.89248 14.1777 5.82248 13.1078 5.3147 11.7489L6.8747 11.1655C7.2147 12.0711 7.92803 12.7855 8.8347 13.1244L8.25136 14.6855Z" fill="#101828"/>
<path d="M6.89102 18.3292C4.47546 17.427 2.57213 15.5248 1.67102 13.1081L3.23102 12.5259C3.96435 14.4892 5.51102 16.0359 7.47435 16.7681L6.89102 18.3292Z" fill="#101828"/>
<path d="M13.1094 18.3292L12.5261 16.7681C14.4905 16.0348 16.0361 14.4892 16.7694 12.5259L18.3294 13.1081C17.4272 15.5248 15.525 17.4281 13.1094 18.3292Z" fill="#101828"/>
<path d="M16.7683 7.47534C16.0372 5.51201 14.4905 3.96534 12.5261 3.23201L13.1094 1.6709C15.5261 2.57312 17.4294 4.47645 18.3305 6.89312L16.7683 7.47534Z" fill="#101828"/>
<path d="M3.23102 7.47423L1.67102 6.89201C2.57324 4.47534 4.47546 2.57201 6.89102 1.6709L7.47435 3.23201C5.50991 3.96534 3.96435 5.5109 3.23102 7.47423Z" fill="#101828"/>
<path d="M11.4579 6.92928C11.3612 6.92928 11.2623 6.91262 11.1656 6.87706C10.4156 6.59817 9.57786 6.59817 8.83452 6.87706C8.62563 6.95373 8.39674 6.94595 8.19674 6.85373C7.99563 6.76151 7.84008 6.59484 7.76119 6.38706L6.20674 2.22151C6.13008 2.01484 6.13786 1.78484 6.23008 1.58373C6.3223 1.38262 6.49008 1.22595 6.69674 1.14928C8.81008 0.360395 11.1912 0.360395 13.3045 1.14928C13.7356 1.31039 13.9545 1.79039 13.7934 2.22151L12.239 6.38817C12.1134 6.72373 11.7956 6.92928 11.4579 6.92928Z" fill="#101828"/>
<path d="M18.0704 13.8438C17.9737 13.8438 17.8748 13.8271 17.7781 13.7916L13.6126 12.2371C13.1815 12.076 12.9626 11.596 13.1237 11.1649C13.2637 10.7916 13.3337 10.3993 13.3337 9.99934C13.3337 9.59712 13.2637 9.20601 13.1248 8.83601C13.047 8.62823 13.0559 8.39934 13.147 8.19712C13.2392 7.99601 13.4059 7.83934 13.6137 7.76157L17.7792 6.20712C18.2159 6.04601 18.6904 6.26601 18.8515 6.69601C19.2459 7.75045 19.4459 8.86268 19.4459 9.99934C19.4459 11.136 19.2459 12.2482 18.8515 13.3027C18.727 13.6371 18.4081 13.8438 18.0704 13.8438Z" fill="#101828"/>
<path d="M9.99973 19.4436C8.86417 19.4436 7.75306 19.2436 6.69528 18.8492C6.26417 18.6881 6.04528 18.2081 6.2064 17.7769L7.76084 13.6103C7.92306 13.1792 8.40084 12.9603 8.83417 13.1214C9.58417 13.4003 10.422 13.4003 11.1653 13.1214C11.3731 13.0436 11.602 13.0514 11.8031 13.1447C12.0042 13.2369 12.1597 13.4036 12.2386 13.6114L13.7931 17.7769C13.8697 17.9836 13.8619 18.2136 13.7697 18.4147C13.6775 18.6158 13.5097 18.7725 13.3031 18.8492C12.2464 19.2436 11.1353 19.4436 9.99862 19.4436H9.99973Z" fill="#101828"/>
<path d="M1.92999 13.8433C1.59221 13.8433 1.27443 13.6367 1.14999 13.3022C0.755542 12.2478 0.555542 11.1356 0.555542 9.99889C0.555542 8.86223 0.755542 7.75001 1.14999 6.69556C1.3111 6.26556 1.78776 6.04667 2.22221 6.20667L6.38776 7.76112C6.81887 7.92223 7.03776 8.40223 6.87665 8.83334C6.73665 9.20667 6.66665 9.5989 6.66665 9.99889C6.66665 10.4011 6.73665 10.7922 6.87554 11.1622C6.95332 11.37 6.94443 11.5989 6.85332 11.8011C6.7611 12.0022 6.59443 12.1589 6.38665 12.2367L2.2211 13.7911C2.12443 13.8267 2.02554 13.8433 1.92888 13.8433H1.92999Z" fill="#101828"/>
</g>
<defs>
<clipPath id="clip0_242_5096">
<rect width="20" height="20" fill="white"/>
</clipPath>
</defs>
</svg>
