<svg width="24" height="24" viewBox="0 0 24 24" fill="none" xmlns="http://www.w3.org/2000/svg">
<path d="M9.02288 10.8902L7.5364 10.3343C8.02024 9.03949 9.03982 8.01992 10.3347 7.53607L10.8905 9.02361C10.0276 9.34652 9.34686 10.0262 9.02288 10.8902Z" fill="#101828"/>
<path d="M14.977 10.8902C14.653 10.0273 13.9734 9.34652 13.1094 9.02361L13.6652 7.53607C14.9601 8.01992 15.9796 9.03949 16.4635 10.3343L14.977 10.8902Z" fill="#101828"/>
<path d="M13.6662 16.4655L13.1103 14.978C13.9732 14.655 14.654 13.9754 14.9779 13.1114L16.4644 13.6673C15.9807 14.9621 14.9611 15.9816 13.6662 16.4655Z" fill="#101828"/>
<path d="M10.3337 16.4655C9.03889 15.9816 8.01931 14.9621 7.53547 13.6673L9.02194 13.1114C9.34592 13.9743 10.0256 14.655 10.8896 14.978L10.3337 16.4655Z" fill="#101828"/>
<path d="M9.03715 19.9374C6.73543 19.0777 4.9218 17.2652 4.06316 14.9624L5.54964 14.4076C6.24841 16.2784 7.72219 17.7522 9.59299 18.4499L9.03715 19.9374Z" fill="#101828"/>
<path d="M14.9628 19.9374L14.407 18.4499C16.2788 17.7512 17.7516 16.2784 18.4503 14.4076L19.9368 14.9624C19.0771 17.2652 17.2646 19.0788 14.9628 19.9374Z" fill="#101828"/>
<path d="M18.4493 9.59511C17.7526 7.72431 16.2788 6.25054 14.407 5.55177L14.9628 4.06423C17.2656 4.92393 19.0792 6.73756 19.9379 9.04033L18.4493 9.59511Z" fill="#101828"/>
<path d="M5.54964 9.59406L4.06316 9.03928C4.92286 6.7365 6.73543 4.92287 9.03715 4.06423L9.59299 5.55177C7.72113 6.25054 6.24841 7.72326 5.54964 9.59406Z" fill="#101828"/>
<path d="M13.3891 9.07479C13.297 9.07479 13.2028 9.05892 13.1106 9.02503C12.396 8.75929 11.5977 8.75929 10.8894 9.02503C10.6904 9.09809 10.4723 9.09068 10.2817 9.0028C10.09 8.91493 9.94183 8.75611 9.86666 8.55813L8.38547 4.58889C8.31242 4.39196 8.31983 4.1728 8.40771 3.98117C8.49558 3.78954 8.65545 3.64025 8.85237 3.5672C10.8661 2.81549 13.135 2.81549 15.1487 3.5672C15.5595 3.72071 15.7681 4.17809 15.6146 4.58889L14.1334 8.55918C14.0138 8.87893 13.7109 9.07479 13.3891 9.07479Z" fill="#101828"/>
<path d="M19.6898 15.6634C19.5977 15.6634 19.5034 15.6475 19.4113 15.6137L15.4421 14.1325C15.0313 13.9789 14.8227 13.5216 14.9762 13.1108C15.1097 12.7551 15.1764 12.3813 15.1764 12.0002C15.1764 11.6169 15.1096 11.2442 14.9773 10.8917C14.9032 10.6937 14.9116 10.4756 14.9985 10.2829C15.0863 10.0912 15.2451 9.94196 15.4432 9.86786L19.4123 8.38667C19.8285 8.23315 20.2806 8.44278 20.4341 8.85251C20.8099 9.85726 21.0005 10.9171 21.0005 12.0002C21.0005 13.0833 20.8099 14.143 20.4341 15.1478C20.3155 15.4665 20.0116 15.6634 19.6898 15.6634Z" fill="#101828"/>
<path d="M11.9993 20.9993C10.9173 20.9993 9.85856 20.8087 8.85063 20.4329C8.43984 20.2794 8.23127 19.8221 8.38479 19.4112L9.86597 15.4409C10.0205 15.0302 10.4758 14.8216 10.8887 14.9751C11.6034 15.2408 12.4017 15.2408 13.11 14.9751C13.308 14.9009 13.5261 14.9084 13.7177 14.9973C13.9093 15.0851 14.0575 15.244 14.1327 15.442L15.6139 19.4112C15.6869 19.6081 15.6795 19.8273 15.5916 20.0189C15.5038 20.2105 15.3439 20.3599 15.147 20.4329C14.1401 20.8087 13.0814 20.9993 11.9983 20.9993H11.9993Z" fill="#101828"/>
<path d="M4.31016 15.663C3.9883 15.663 3.6855 15.4661 3.56692 15.1474C3.19106 14.1427 3.00049 13.0829 3.00049 11.9997C3.00049 10.9166 3.19106 9.85684 3.56692 8.85209C3.72044 8.44235 4.17463 8.23378 4.58861 8.38624L8.55784 9.86743C8.96863 10.0209 9.17721 10.4783 9.02369 10.8891C8.89029 11.2449 8.82359 11.6186 8.82359 11.9997C8.82359 12.383 8.89029 12.7557 9.02263 13.1082C9.09674 13.3062 9.08827 13.5243 9.00146 13.717C8.91358 13.9086 8.75477 14.0579 8.55678 14.1321L4.58755 15.6132C4.49544 15.6471 4.40121 15.663 4.3091 15.663H4.31016Z" fill="#101828"/>
</svg>
