<svg width="24" height="24" viewBox="0 0 24 24" fill="none" xmlns="http://www.w3.org/2000/svg">
<path d="M11.9997 13C12.552 13 12.9998 12.5523 12.9998 12C12.9998 11.4477 12.552 11 11.9997 11C11.4474 11 10.9997 11.4477 10.9997 12C10.9997 12.5523 11.4474 13 11.9997 13ZM19 13C19.5522 13 19.9999 12.5523 19.9999 12C19.9999 11.4477 19.5522 11 19 11C18.4476 11 17.9999 11.4477 17.9999 12C17.9999 12.5523 18.4476 13 19 13ZM4.99952 13C5.5518 13 5.99952 12.5523 5.99952 12C5.99952 11.4477 5.5518 11 4.99952 11C4.44723 11 3.99951 11.4477 3.99951 12C3.99951 12.5523 4.44723 13 4.99952 13Z" stroke="#101828" stroke-width="1.5" stroke-linecap="round"/>
</svg>
