<svg width="24" height="24" viewBox="0 0 24 24" fill="none" xmlns="http://www.w3.org/2000/svg">
<path d="M4.27837 9.93551C4.10237 10.5949 3.99951 11.2852 3.99951 11.9995C3.99951 16.4178 7.58122 19.9995 11.9995 19.9995C16.4178 19.9995 19.9995 16.4178 19.9995 11.9995C19.9995 7.58122 16.4178 3.99951 11.9995 3.99951C11.2841 3.99951 10.5949 4.10237 9.93551 4.27837M12.0001 12.0001L6.28578 6.28578M12.0001 13.1435C12.6312 13.1435 13.1429 12.6318 13.1429 12.0006C13.1429 11.3694 12.6312 10.8578 12.0001 10.8578C11.3689 10.8578 10.8572 11.3694 10.8572 12.0006C10.8572 12.6318 11.3689 13.1435 12.0001 13.1435Z" stroke="#101828" stroke-width="1.5" stroke-linecap="round" stroke-linejoin="round"/>
</svg>
