<svg width="20" height="20" viewBox="0 0 20 20" fill="none" xmlns="http://www.w3.org/2000/svg">
<path d="M9.99982 11.0005C10.5521 11.0005 10.9998 10.5528 10.9998 10.0005C10.9998 9.4482 10.5521 9.00049 9.99982 9.00049C9.44753 9.00049 8.99982 9.4482 8.99982 10.0005C8.99982 10.5528 9.44753 11.0005 9.99982 11.0005Z" fill="#101828" stroke="#101828" stroke-width="2" stroke-linecap="round" stroke-linejoin="round"/>
<path d="M3.24369 8.19351C3.08969 8.77051 2.99969 9.37451 2.99969 9.99951C2.99969 13.8655 6.13369 16.9995 9.99969 16.9995C13.8657 16.9995 16.9997 13.8655 16.9997 9.99951C16.9997 6.13351 13.8657 2.99951 9.99969 2.99951C9.37369 2.99951 8.77069 3.08951 8.19369 3.24351" stroke="#101828" stroke-width="2" stroke-linecap="round" stroke-linejoin="round"/>
<path d="M10 10L5 5" stroke="#101828" stroke-width="2" stroke-linecap="round" stroke-linejoin="round"/>
</svg>
