<svg width="24" height="24" viewBox="0 0 24 24" fill="none" xmlns="http://www.w3.org/2000/svg">
<path d="M12.189 3.7666L12.3745 3.81055L18.3159 5.71191C18.8292 5.8762 19.1724 6.34635 19.1724 6.88477V14.2637C19.1724 15.8654 18.0404 17.1917 16.4878 18.2451C15.1512 19.1519 13.6441 19.7571 12.731 20.0742L12.3784 20.1924C12.2544 20.2325 12.1285 20.2519 12.0005 20.252C11.8749 20.252 11.747 20.2317 11.6187 20.1904H11.6177C10.7856 19.921 9.03775 19.2793 7.51221 18.2441C5.95995 17.1908 4.82861 15.8644 4.82861 14.2627V6.88477C4.82861 6.34574 5.17055 5.87604 5.68311 5.71191L11.6255 3.81055V3.81152C11.8105 3.75255 12.0016 3.73719 12.189 3.7666Z" stroke="#101828" stroke-width="1.5"/>
<path d="M15.511 9.96495L11.6667 15.0575C11.5218 15.2488 11.3023 15.3698 11.0624 15.3914C11.0386 15.3936 11.0137 15.3947 10.9888 15.3947C10.7749 15.3947 10.5678 15.3144 10.4105 15.1673L8.58964 13.4698C8.24675 13.1494 8.22751 12.6131 8.54664 12.2702C8.86804 11.9273 9.40445 11.9092 9.74622 12.2272L10.879 13.2831L14.1564 8.94191C14.4393 8.56846 14.9712 8.49376 15.3458 8.77668C15.7204 9.05961 15.7939 9.59036 15.511 9.96495Z" fill="#101828"/>
</svg>
