<svg width="20" height="20" viewBox="0 0 20 20" fill="none" xmlns="http://www.w3.org/2000/svg">
<path d="M16.4258 3.12511L10.5925 1.25844C10.2047 1.134 9.79469 1.13511 9.40803 1.25844L3.57358 3.12511C2.7647 3.384 2.22247 4.12844 2.22247 4.97733V12.2218C2.22247 16.1196 7.71803 18.1984 9.40025 18.7429C9.59692 18.8062 9.79803 18.8384 10.0003 18.8384C10.2025 18.8384 10.4025 18.8073 10.598 18.744C12.2825 18.1996 17.778 16.1207 17.778 12.2229V4.97733C17.778 4.12844 17.2347 3.384 16.4258 3.12511ZM13.4469 8.00178L9.67247 13.0018C9.53025 13.1896 9.31469 13.3084 9.07914 13.3296C9.05581 13.3318 9.03136 13.3329 9.00692 13.3329C8.79692 13.3329 8.59358 13.254 8.43914 13.1096L6.65136 11.4429C6.3147 11.1284 6.29581 10.6018 6.60914 10.2651C6.9247 9.92844 7.45136 9.91067 7.78692 10.2229L8.89914 11.2596L12.1169 6.99733C12.3947 6.63067 12.9169 6.55733 13.2847 6.83511C13.6525 7.11289 13.7247 7.634 13.4469 8.00178Z" fill="#101828"/>
</svg>
