<svg width="20" height="20" viewBox="0 0 20 20" fill="none" xmlns="http://www.w3.org/2000/svg">
<g clip-path="url(#clip0_242_5209)">
<path d="M15.0519 7.08317L4.94827 12.9165M15.0519 7.08317L15.967 3.66811M15.0519 7.08317L18.467 7.99823M4.94827 12.9165L1.5332 12.0014M4.94827 12.9165L4.0332 16.3316M15.0518 12.9164L4.9482 7.08305M15.0518 12.9164L18.467 12.0013M15.0518 12.9164L15.967 16.3315M4.9482 7.08305L4.03332 3.6682M4.9482 7.08305L1.53332 7.99833M10.0001 4.1665L10.0001 15.8332M10.0001 4.1665L7.50008 1.6665M10.0001 4.1665L12.5001 1.6665M10.0001 15.8332L7.50008 18.3332M10.0001 15.8332L12.5001 18.3332" stroke="#080816" stroke-width="2" stroke-linecap="round" stroke-linejoin="round"/>
</g>
<defs>
<clipPath id="clip0_242_5209">
<rect width="20" height="20" fill="white"/>
</clipPath>
</defs>
</svg>
