<svg width="24" height="24" viewBox="0 0 24 24" fill="none" xmlns="http://www.w3.org/2000/svg">
<path d="M17.376 8.24951L16.8613 18.0229V18.0239C16.7962 19.2726 15.768 20.2493 14.5215 20.2495H9.22852C8.06 20.2493 7.08333 19.391 6.91211 18.2544L6.88867 18.0229L6.37402 8.24951H17.376Z" stroke="#101828" stroke-width="1.5"/>
<path d="M18.9062 7.37497H15.2499V5.96873C15.2499 4.88334 14.3666 4 13.2812 4H10.4687C9.38331 4 8.49996 4.88334 8.49996 5.96873V7.37497H4.84374C4.37788 7.37497 4 7.75285 4 8.21872C4 8.68458 4.37788 9.06246 4.84374 9.06246H18.9062C19.372 9.06246 19.7499 8.68458 19.7499 8.21872C19.7499 7.75285 19.372 7.37497 18.9062 7.37497ZM10.1874 5.96873C10.1874 5.81607 10.316 5.68748 10.4687 5.68748H13.2812C13.4339 5.68748 13.5624 5.81607 13.5624 5.96873V7.37497H10.1874V5.96873Z" fill="#101828"/>
</svg>
