<svg width="20" height="20" viewBox="0 0 20 20" fill="none" xmlns="http://www.w3.org/2000/svg">
<path d="M3.78583 5.55566L4.33563 15.9881C4.42029 17.6147 5.76028 18.889 7.38684 18.889H12.6136C14.2402 18.889 15.5801 17.6146 15.6648 15.9886L16.2146 5.55566H3.78583Z" fill="#9E3024"/>
<path d="M16.9445 4.44466H13.3333V3.05577C13.3333 1.98377 12.4609 1.11133 11.3889 1.11133H8.61112C7.53912 1.11133 6.66667 1.98377 6.66667 3.05577V4.44466H3.05556C2.59545 4.44466 2.22223 4.81788 2.22223 5.278C2.22223 5.73811 2.59545 6.11133 3.05556 6.11133H16.9445C17.4046 6.11133 17.7778 5.73811 17.7778 5.278C17.7778 4.81788 17.4046 4.44466 16.9445 4.44466ZM8.33334 3.05577C8.33334 2.90499 8.46034 2.77799 8.61112 2.77799H11.3889C11.5397 2.77799 11.6667 2.90499 11.6667 3.05577V4.44466H8.33334V3.05577Z" fill="#9E3024"/>
</svg>
