<svg width="243" height="243" viewBox="0 0 243 243" fill="none" xmlns="http://www.w3.org/2000/svg">
<rect width="243" height="243" fill="#402FEC"/>
<g clip-path="url(#clip0_242_5884)">
<path d="M52.3435 78V97.5141L36.2236 78H28V114.121H37.7933V95.1139L53.967 114.121H62.1512V78H52.3435Z" fill="white"/>
<path d="M65.7422 100.111C65.7422 92.1752 70.5032 85.6084 81.45 85.6084C93.0532 85.6084 96.7747 92.6681 96.7747 100.277C96.7747 101.153 96.7208 101.973 96.611 102.575H75.2663C75.813 106.953 78.1117 108.376 81.6695 108.376C83.4422 108.376 84.7862 107.927 85.7492 107.202C87.1284 106.166 88.7644 105.53 90.4895 105.53H96.6649C95.7351 110.238 91.7941 114.669 81.45 114.669C69.9026 114.669 65.7422 107.61 65.7422 100.111ZM87.4701 97.0998C87.1408 94.1985 85.3909 91.7921 81.6136 91.7921C78.0558 91.7921 75.9766 93.7077 75.374 97.0998H87.468H87.4701Z" fill="white"/>
<path d="M97.7811 86.3726H106.779C107.962 86.3726 109.063 86.9648 109.718 87.9485L113.87 94.1985L117.811 88.0065C118.459 86.9897 119.581 86.3726 120.787 86.3726H129.741L120.054 100.055L130.342 114.121H121.157C119.958 114.121 118.84 113.512 118.19 112.501L114.087 106.129L110.142 112.458C109.498 113.491 108.365 114.121 107.148 114.121H97.9965L107.794 100.055L97.7791 86.3726H97.7811Z" fill="white"/>
<path d="M133.015 86.3726H142.013C143.196 86.3726 144.298 86.9648 144.952 87.9485L149.104 94.1985L153.045 88.0065C153.693 86.9897 154.816 86.3726 156.021 86.3726H164.976L155.288 100.055L165.576 114.121H156.392C155.193 114.121 154.074 113.512 153.424 112.501L149.322 106.129L145.377 112.458C144.733 113.491 143.6 114.121 142.382 114.121H133.231L143.028 100.055L133.013 86.3726H133.015Z" fill="white"/>
<path d="M179.872 85.8819C184.086 85.8819 187.095 87.1948 189.066 89.4935H189.886V78H199.684V114.121H192.568C191.088 114.121 189.886 112.92 189.886 111.439H189.066C187.097 113.684 184.086 114.997 179.872 114.997C170.513 114.997 166.846 108.21 166.846 100.384C166.846 92.5584 170.513 85.8819 179.872 85.8819ZM183.156 93.2149C178.339 93.2149 176.643 95.8967 176.643 100.438C176.643 104.98 178.339 107.662 183.156 107.662C187.973 107.662 189.889 104.76 189.889 100.438C189.889 96.1162 188.192 93.2149 183.156 93.2149Z" fill="white"/>
<path d="M214.897 90.0132H205.099V114.121H214.897V90.0132Z" fill="white"/>
<path d="M214.895 86.7144L206.795 84.4591C205.317 84.0222 204.551 82.7631 204.551 81.2845V78H214.895V86.7144Z" fill="#50FE42"/>
</g>
<path d="M176.061 167.377V153.882C176.061 152.814 175.968 151.721 175.781 150.603C175.612 149.468 175.273 148.418 174.765 147.452C174.274 146.486 173.57 145.707 172.656 145.114C171.758 144.521 170.58 144.224 169.123 144.224C168.174 144.224 167.276 144.385 166.429 144.707C165.582 145.012 164.836 145.512 164.193 146.207C163.566 146.901 163.066 147.816 162.693 148.951C162.337 150.086 162.159 151.467 162.159 153.094L158.856 151.849C158.856 149.358 159.321 147.164 160.253 145.266C161.185 143.352 162.524 141.861 164.269 140.793C166.014 139.726 168.123 139.192 170.597 139.192C172.495 139.192 174.087 139.497 175.375 140.107C176.663 140.717 177.705 141.522 178.501 142.521C179.314 143.504 179.933 144.58 180.356 145.749C180.78 146.918 181.068 148.062 181.22 149.18C181.373 150.298 181.449 151.281 181.449 152.128V167.377H176.061ZM156.772 167.377V130.78H161.524V150.527H162.159V167.377H156.772Z" fill="#FDFEFF"/>
<path d="M140.042 168.114C136.704 168.114 133.985 167.377 131.884 165.903C129.783 164.429 128.496 162.353 128.021 159.676L133.46 158.837C133.799 160.261 134.578 161.387 135.798 162.218C137.035 163.031 138.568 163.437 140.398 163.437C142.058 163.437 143.354 163.099 144.286 162.421C145.235 161.743 145.71 160.811 145.71 159.625C145.71 158.931 145.54 158.372 145.201 157.948C144.879 157.507 144.193 157.092 143.143 156.703C142.092 156.313 140.491 155.83 138.339 155.254C135.984 154.644 134.112 153.992 132.723 153.297C131.35 152.586 130.368 151.764 129.775 150.832C129.199 149.883 128.911 148.739 128.911 147.401C128.911 145.741 129.351 144.292 130.232 143.055C131.113 141.818 132.35 140.861 133.943 140.183C135.552 139.506 137.433 139.167 139.585 139.167C141.686 139.167 143.558 139.497 145.201 140.158C146.845 140.819 148.175 141.759 149.191 142.979C150.208 144.182 150.818 145.597 151.021 147.223L145.582 148.214C145.396 146.893 144.778 145.851 143.727 145.088C142.677 144.326 141.313 143.911 139.636 143.843C138.026 143.775 136.721 144.046 135.722 144.656C134.722 145.249 134.222 146.071 134.222 147.121C134.222 147.731 134.409 148.248 134.781 148.672C135.171 149.095 135.917 149.502 137.018 149.892C138.119 150.281 139.746 150.747 141.897 151.289C144.202 151.882 146.031 152.543 147.387 153.272C148.742 153.983 149.708 154.839 150.284 155.839C150.877 156.821 151.174 158.016 151.174 159.422C151.174 162.133 150.182 164.259 148.2 165.801C146.235 167.343 143.515 168.114 140.042 168.114Z" fill="#FDFEFF"/>
<path d="M108.359 168.139C106.326 168.139 104.623 167.766 103.251 167.021C101.878 166.258 100.836 165.259 100.125 164.022C99.43 162.768 99.0826 161.396 99.0826 159.905C99.0826 158.516 99.3283 157.296 99.8197 156.245C100.311 155.195 101.04 154.305 102.005 153.577C102.971 152.831 104.157 152.23 105.563 151.772C106.783 151.416 108.164 151.103 109.706 150.832C111.248 150.561 112.866 150.307 114.56 150.07C116.271 149.832 117.966 149.595 119.643 149.358L117.711 150.425C117.745 148.274 117.288 146.681 116.339 145.647C115.407 144.597 113.798 144.072 111.51 144.072C110.07 144.072 108.749 144.411 107.546 145.088C106.343 145.749 105.504 146.85 105.03 148.392L100.074 146.867C100.752 144.512 102.039 142.64 103.937 141.251C105.851 139.861 108.393 139.167 111.561 139.167C114.018 139.167 116.153 139.59 117.966 140.437C119.795 141.268 121.134 142.589 121.981 144.402C122.422 145.3 122.693 146.249 122.794 147.249C122.896 148.248 122.947 149.324 122.947 150.476V167.377H118.245V161.099L119.16 161.913C118.025 164.014 116.576 165.581 114.814 166.614C113.069 167.631 110.917 168.139 108.359 168.139ZM109.299 163.793C110.807 163.793 112.103 163.531 113.188 163.005C114.272 162.463 115.145 161.777 115.805 160.947C116.466 160.117 116.898 159.253 117.101 158.355C117.389 157.541 117.55 156.626 117.584 155.61C117.635 154.593 117.661 153.78 117.661 153.17L119.389 153.805C117.711 154.06 116.187 154.288 114.814 154.492C113.442 154.695 112.196 154.898 111.078 155.102C109.977 155.288 108.994 155.517 108.13 155.788C107.402 156.042 106.749 156.347 106.173 156.703C105.614 157.058 105.165 157.491 104.826 157.999C104.504 158.507 104.343 159.126 104.343 159.854C104.343 160.566 104.521 161.226 104.877 161.836C105.233 162.429 105.775 162.904 106.504 163.26C107.232 163.615 108.164 163.793 109.299 163.793Z" fill="#FDFEFF"/>
<path d="M78.753 168.139C75.0933 168.139 71.9758 167.343 69.4005 165.75C66.8252 164.141 64.8513 161.904 63.479 159.041C62.1235 156.177 61.4458 152.857 61.4458 149.078C61.4458 145.3 62.1235 141.979 63.479 139.116C64.8513 136.253 66.8252 134.025 69.4005 132.432C71.9758 130.822 75.0933 130.018 78.753 130.018C82.9718 130.018 86.462 131.085 89.2237 133.22C92.0023 135.355 93.9338 138.226 95.0182 141.835L89.6304 143.284C88.9188 140.725 87.648 138.718 85.8182 137.261C84.0053 135.804 81.6502 135.075 78.753 135.075C76.1607 135.075 74.0005 135.66 72.2723 136.829C70.5441 137.998 69.2395 139.633 68.3585 141.734C67.4944 143.835 67.0624 146.283 67.0624 149.078C67.0454 151.874 67.469 154.322 68.3331 156.423C69.2141 158.524 70.5187 160.159 72.2469 161.328C73.992 162.497 76.1607 163.082 78.753 163.082C81.6502 163.082 84.0053 162.353 85.8182 160.896C87.648 159.422 88.9188 157.414 89.6304 154.873L95.0182 156.321C93.9338 159.93 92.0023 162.802 89.2237 164.937C86.462 167.072 82.9718 168.139 78.753 168.139Z" fill="#FDFEFF"/>
<defs>
<clipPath id="clip0_242_5884">
<rect width="186.895" height="36.9967" fill="white" transform="translate(28 78)"/>
</clipPath>
</defs>
</svg>
