<svg width="40" height="28" viewBox="0 0 40 28" fill="none" xmlns="http://www.w3.org/2000/svg">
<path d="M3.47852 0.43457H36.5215C38.2024 0.43457 39.5654 1.79765 39.5654 3.47852V24.3477C39.5654 26.0285 38.2024 27.3916 36.5215 27.3916H3.47852C1.79765 27.3916 0.43457 26.0285 0.43457 24.3477V3.47852C0.43457 1.79765 1.79765 0.43457 3.47852 0.43457Z" fill="white"/>
<path d="M3.47852 0.43457H36.5215C38.2024 0.43457 39.5654 1.79765 39.5654 3.47852V24.3477C39.5654 26.0285 38.2024 27.3916 36.5215 27.3916H3.47852C1.79765 27.3916 0.43457 26.0285 0.43457 24.3477V3.47852C0.43457 1.79765 1.79765 0.43457 3.47852 0.43457Z" stroke="#E4E7EC" stroke-width="0.869565"/>
<path fill-rule="evenodd" clip-rule="evenodd" d="M11.0404 9.67301C10.7041 10.081 10.166 10.4028 9.62786 10.3568C9.5606 9.80518 9.82405 9.21904 10.1323 8.85701C10.4687 8.43752 11.0572 8.13871 11.5336 8.11572C11.5897 8.69037 11.3711 9.25352 11.0404 9.67301ZM11.528 10.466C11.0539 10.438 10.6214 10.6122 10.272 10.7528C10.0472 10.8433 9.85675 10.92 9.7119 10.92C9.54935 10.92 9.35109 10.8392 9.12849 10.7486C8.83681 10.6298 8.50334 10.494 8.15364 10.5005C7.35209 10.512 6.60659 10.9774 6.19741 11.7187C5.35662 13.2013 5.9788 15.3965 6.79157 16.6032C7.18954 17.2008 7.66598 17.8559 8.29377 17.8329C8.56996 17.8223 8.76864 17.7358 8.97424 17.6464C9.21096 17.5434 9.45686 17.4364 9.84082 17.4364C10.2115 17.4364 10.4466 17.5406 10.6724 17.6406C10.887 17.7357 11.0931 17.827 11.3991 17.8214C12.0493 17.81 12.4585 17.2238 12.8564 16.6262C13.2859 15.9848 13.4747 15.3588 13.5033 15.2638L13.5067 15.2528C13.506 15.2521 13.5007 15.2496 13.4914 15.2452L13.4913 15.2452L13.4913 15.2452C13.3477 15.1778 12.2504 14.6628 12.2399 13.2818C12.2293 12.1226 13.1102 11.5353 13.2489 11.4428C13.2574 11.4372 13.2631 11.4334 13.2656 11.4314C12.7051 10.5809 11.8307 10.489 11.528 10.466ZM16.0291 17.7582V8.79954H19.3081C21.0009 8.79954 22.1836 9.9948 22.1836 11.7417C22.1836 13.4886 20.9785 14.6954 19.2633 14.6954H17.3855V17.7582H16.0291ZM17.3854 9.97182H18.9493C20.1264 9.97182 20.799 10.6154 20.799 11.7475C20.799 12.8795 20.1264 13.5289 18.9437 13.5289H17.3854V9.97182ZM26.6623 16.6837C26.3035 17.3847 25.5132 17.8272 24.6612 17.8272C23.4 17.8272 22.52 17.0572 22.52 15.8964C22.52 14.7471 23.372 14.0863 24.9471 13.9886L26.6399 13.8851V13.3909C26.6399 12.6612 26.1746 12.2646 25.3451 12.2646C24.6612 12.2646 24.1623 12.6267 24.0614 13.1783H22.8395C22.8787 12.0176 23.9437 11.1728 25.3843 11.1728C26.9369 11.1728 27.9459 12.0061 27.9459 13.299V17.7582H26.6903V16.6837H26.6623ZM25.0255 16.7641C24.3024 16.7641 23.8428 16.4078 23.8428 15.8619C23.8428 15.2988 24.2856 14.9712 25.132 14.9195L26.6398 14.8218V15.3275C26.6398 16.1665 25.9447 16.7641 25.0255 16.7641ZM32.1105 18.1088C31.5668 19.6776 30.9446 20.1947 29.6218 20.1947C29.5209 20.1947 29.1846 20.1832 29.1061 20.1603V19.0857C29.1902 19.0972 29.3976 19.1087 29.5041 19.1087C30.1039 19.1087 30.4402 18.8501 30.6476 18.1777L30.7709 17.7812L28.4727 11.259H29.8909L31.4884 16.5515H31.5164L33.1139 11.259H34.4928L32.1105 18.1088Z" fill="black"/>
</svg>
