<svg width="49" height="16" viewBox="0 0 49 16" fill="none" xmlns="http://www.w3.org/2000/svg">
<path fill-rule="evenodd" clip-rule="evenodd" d="M12.1757 15.8749H7.96099L4.80043 3.46258C4.65042 2.89161 4.33189 2.38684 3.86336 2.14894C2.69408 1.55108 1.40561 1.07527 0 0.835297V0.357422H6.78965C7.72672 0.357422 8.42952 1.07527 8.54666 1.90896L10.1865 10.8624L14.3992 0.357422H18.4969L12.1757 15.8749ZM20.8389 15.8749H16.8584L20.1361 0.357422H24.1166L20.8389 15.8749ZM29.2676 4.6567C29.3847 3.82093 30.0876 3.34306 30.9075 3.34306C32.196 3.22307 33.5995 3.46304 34.7708 4.05884L35.4737 0.717847C34.3023 0.239972 33.0138 0 31.8446 0C27.9812 0 25.17 2.1494 25.17 5.1325C25.17 7.40189 27.1613 8.59348 28.5669 9.31133C30.0876 10.0271 30.6732 10.505 30.5561 11.2208C30.5561 12.2944 29.3848 12.7723 28.2155 12.7723C26.8099 12.7723 25.4043 12.4144 24.1178 11.8166L23.415 15.1596C24.8206 15.7554 26.3413 15.9954 27.7469 15.9954C32.0788 16.1133 34.7708 13.966 34.7708 10.7429C34.7708 6.68405 29.2676 6.44614 29.2676 4.6567ZM48.7012 15.8749L45.5406 0.357422H42.1458C41.443 0.357422 40.7402 0.835297 40.5059 1.55108L34.6533 15.8749H38.7509L39.5688 13.6076H44.6035L45.0721 15.8749H48.7012ZM42.7315 4.53711L43.9007 10.3854H40.623L42.7315 4.53711Z" fill="white"/>
</svg>
