<svg width="24" height="24" viewBox="0 0 24 24" fill="none" xmlns="http://www.w3.org/2000/svg">
<path d="M11.9639 18.5034C15.7534 15.2553 21.0767 12.0974 24 10.9605C23.5489 10.6718 22.8451 10.2568 22.0511 9.80566C18.2797 11.0508 13.8767 13.8117 9.94287 16.9335C10.6105 17.4387 11.3143 17.962 11.9639 18.5034Z" fill="#E31837"/>
<path d="M10.2316 9.67833C9.67224 9.40765 9.0587 9.15502 8.58953 8.93848C7.16397 9.64224 5.30533 10.7069 2.95947 12.3851C3.46474 12.6558 4.00609 12.9806 4.58353 13.3054C6.38804 11.9701 8.21059 10.7069 10.2316 9.67833Z" fill="#012169"/>
<path d="M13.6058 8.12941C12.9201 7.75046 10.5381 6.86625 8.89601 6.4873C8.40879 6.66776 7.72308 6.93843 7.25391 7.13693C7.84939 7.29933 10.0689 7.89482 11.9637 8.85121C12.4509 8.61663 13.1366 8.3279 13.6058 8.12941Z" fill="#E31837"/>
<path d="M5.53984 7.89551C3.42857 8.86994 1.20902 10.2053 0 10.9812C0.433082 11.1797 0.86616 11.3421 1.46165 11.6308C4.13232 9.82633 6.22555 8.72558 7.05563 8.36468C6.46014 8.14814 5.90075 8.00378 5.53984 7.89551Z" fill="#012169"/>
<path d="M15.1941 7.56835C15.6813 7.40594 16.2407 7.26158 16.7279 7.11722C15.3204 6.52173 13.552 5.89016 11.964 5.49316C11.7114 5.56534 10.9535 5.76384 10.4302 5.92625C10.9715 6.08865 12.758 6.50369 15.1941 7.56835ZM6.29785 14.3533C6.87529 14.6962 7.48882 15.1653 8.08431 15.5623C12.0362 12.4947 15.9339 10.1308 20.2106 8.79542C19.6151 8.48865 19.0918 8.21797 18.4241 7.89316C15.8617 8.54278 11.4768 10.2932 6.29785 14.3533Z" fill="#E31837"/>
</svg>
