<svg width="20" height="19" viewBox="0 0 20 19" fill="none" xmlns="http://www.w3.org/2000/svg">
<g clip-path="url(#clip0_242_8047)">
<path d="M5.5094 8.92943C5.5094 8.093 5.71546 7.37783 6.12757 6.78391C6.53968 6.18999 7.10333 5.74158 7.8185 5.43852C8.47297 5.15971 9.27912 4.95984 10.2368 4.83842C10.564 4.80212 11.0973 4.75362 11.8368 4.69291V4.38383C11.8368 3.6081 11.752 3.08694 11.5822 2.82017C11.3276 2.4564 10.9277 2.27476 10.3822 2.27476H10.2368C9.83675 2.31105 9.4912 2.43833 9.20035 2.65643C8.90949 2.8747 8.7215 3.1776 8.6367 3.56562C8.5882 3.80797 8.46711 3.9473 8.27309 3.98376L6.18209 3.7292C5.97604 3.68069 5.87301 3.57164 5.87301 3.40188C5.87301 3.36559 5.87903 3.32311 5.89108 3.27477C6.09713 2.19598 6.60316 1.39601 7.40932 0.874682C8.21531 0.353681 9.15787 0.0626633 10.2368 0.00195312H10.6914C12.0729 0.00195312 13.1519 0.359541 13.9279 1.07472C14.0493 1.19646 14.162 1.327 14.2642 1.46551C14.3669 1.60483 14.4489 1.72918 14.5093 1.83823C14.57 1.94728 14.6247 2.105 14.673 2.31089C14.7217 2.51711 14.7578 2.65953 14.7824 2.73814C14.8065 2.81692 14.8247 2.98668 14.8368 3.24742C14.8488 3.508 14.8549 3.66246 14.8549 3.71097V8.11107C14.8549 8.42618 14.9003 8.7141 14.9912 8.97468C15.0822 9.23543 15.1703 9.42325 15.2548 9.53833C15.3396 9.6534 15.4792 9.83846 15.6731 10.0927C15.7458 10.2021 15.7821 10.2991 15.7821 10.3839C15.7821 10.4809 15.7338 10.5654 15.6364 10.6383C14.6306 11.5112 14.0852 11.984 14.0002 12.0567C13.8548 12.1658 13.6791 12.1778 13.4728 12.093C13.3034 11.9474 13.155 11.8082 13.0275 11.6747C12.9004 11.5416 12.8094 11.4446 12.7547 11.3839C12.7004 11.3235 12.6123 11.2052 12.4912 11.0294C12.3701 10.8536 12.2848 10.7353 12.2367 10.6749C11.558 11.4143 10.8913 11.8749 10.2368 12.0567C9.82454 12.1778 9.31542 12.2385 8.70946 12.2385C7.77602 12.2385 7.00941 11.9505 6.40947 11.3748C5.80937 10.7989 5.5094 9.98381 5.5094 8.92943ZM8.6367 8.56566C8.6367 9.03849 8.75503 9.41723 8.9912 9.70207C9.22769 9.9869 9.54573 10.1293 9.9458 10.1293C9.98226 10.1293 10.0337 10.1233 10.1004 10.1112C10.1668 10.0989 10.2124 10.0929 10.2368 10.0929C10.7458 9.95972 11.1397 9.63257 11.4185 9.11124C11.5519 8.88093 11.6519 8.62947 11.7186 8.35668C11.7853 8.08405 11.8216 7.86269 11.8276 7.69293C11.8337 7.52334 11.8369 7.24453 11.8369 6.85666V6.40207C11.1338 6.40207 10.6006 6.45057 10.237 6.54758C9.16991 6.85048 8.6367 7.52317 8.6367 8.56566Z" fill="black"/>
<path d="M16.2728 14.4207C16.2972 14.3721 16.3335 14.3237 16.3821 14.2751C16.685 14.069 16.9759 13.9298 17.2547 13.8571C17.7153 13.736 18.1639 13.6693 18.6001 13.657C18.7215 13.6447 18.8366 13.651 18.9456 13.6751C19.4912 13.7235 19.8182 13.8146 19.9276 13.9479C19.9759 14.0207 20 14.1297 20 14.2751V14.4025C20 14.8265 19.8849 15.3267 19.6548 15.9023C19.4243 16.478 19.1032 16.9419 18.6909 17.2935C18.6305 17.3418 18.5758 17.3659 18.5275 17.3659C18.5031 17.3659 18.4788 17.3599 18.4547 17.3478C18.382 17.3115 18.3638 17.2448 18.4001 17.1478C18.8486 16.0933 19.0727 15.36 19.0727 14.9476C19.0727 14.8144 19.0487 14.7174 19.0003 14.6567C18.8789 14.5114 18.5397 14.4386 17.9821 14.4386C17.7757 14.4386 17.5335 14.4507 17.2547 14.4749C16.9518 14.5115 16.673 14.5477 16.4183 14.5843C16.3455 14.5843 16.2972 14.5719 16.2726 14.5477C16.2485 14.5236 16.2423 14.4993 16.2545 14.4749C16.2545 14.463 16.2605 14.4448 16.2728 14.4207ZM0.0362959 14.1118C0.097006 14.0148 0.193849 14.0088 0.327314 14.0934C3.35761 15.8511 6.65468 16.73 10.2182 16.73C12.5942 16.73 14.9396 16.2874 17.2547 15.4025C17.3151 15.3784 17.4031 15.3421 17.5182 15.2935C17.6336 15.2451 17.7153 15.2087 17.7637 15.1844C17.9455 15.1116 18.0879 15.1481 18.1909 15.2935C18.2943 15.4391 18.2609 15.5723 18.0911 15.6934C17.8727 15.8511 17.5939 16.0329 17.2547 16.2389C16.2124 16.8573 15.0485 17.336 13.7636 17.6755C12.4789 18.015 11.2242 18.1844 10.0001 18.1844C8.10912 18.1844 6.32118 17.8542 4.63643 17.1935C2.95152 16.5329 1.44239 15.6024 0.10905 14.4027C0.0362959 14.3419 0 14.2812 0 14.2207C0 14.1842 0.0120444 14.1479 0.0362959 14.1118Z" fill="#FF9900"/>
</g>
<defs>
<clipPath id="clip0_242_8047">
<rect width="20" height="18.182" fill="white"/>
</clipPath>
</defs>
</svg>
