<svg width="21" height="20" viewBox="0 0 21 20" fill="none" xmlns="http://www.w3.org/2000/svg">
<path d="M0.0524902 11.8959C0.0524902 9.83075 1.74722 8.22581 3.947 8.22581C5.22646 8.22581 6.38246 8.7982 7.05587 9.65118L6.10188 10.6052C5.58561 9.94299 4.79997 9.56139 3.96944 9.55017C2.65631 9.55017 1.60131 10.5378 1.60131 11.8959C1.60131 13.2651 2.65631 14.2528 3.96944 14.2528C4.83364 14.2528 5.65295 13.8487 6.16922 13.1529L7.11198 14.0844C6.47225 14.9823 5.26013 15.5771 3.947 15.5771C1.74722 15.5771 0.0524902 13.9722 0.0524902 11.8959Z" fill="#255BE3"/>
<path d="M8.35778 8.47272H9.87293V15.3302H8.35778V8.47272Z" fill="#255BE3"/>
<path d="M12.6788 13.4896V9.74099H11.0289V8.47275H12.7573V7.00249L14.1715 6.30664V8.47275H16.4161V9.75221H14.1715V13.2427C14.1715 13.9385 14.5643 14.2416 15.2938 14.2416C15.6754 14.2416 16.057 14.163 16.4049 14.0059V15.3078C15.9672 15.4986 15.4958 15.5884 15.0132 15.5884C13.6664 15.5771 12.6788 14.8476 12.6788 13.4896Z" fill="#255BE3"/>
<path d="M17.6059 8.47272H19.121V15.3302H17.6059V8.47272Z" fill="#255BE3"/>
<path d="M13.7213 4.1075C16.2354 4.09628 18.6035 5.31962 20.0513 7.3735H18.2892C16.0109 4.84824 12.1276 4.64622 9.60236 6.91334C9.44523 7.05924 9.28811 7.21637 9.1422 7.3735H7.39136C8.83917 5.31962 11.2073 4.09628 13.7213 4.1075Z" fill="#FF3C28"/>
</svg>
