<svg width="243" height="29" viewBox="0 0 243 29" fill="none" xmlns="http://www.w3.org/2000/svg">
<g clip-path="url(#clip0_460_798)">
<path d="M18.1291 0.418945V14.9516L6.12427 0.418945H0V27.3188H7.29329V13.1641L19.3383 27.3188H25.4332V0.418945H18.1291Z" fill="#402FEC"/>
<path d="M28.1074 16.8856C28.1074 10.9757 31.6531 6.08521 39.8054 6.08521C48.4466 6.08521 51.218 11.3427 51.218 17.009C51.218 17.6613 51.1779 18.2721 51.0962 18.7208H35.2002C35.6074 21.9812 37.3193 23.0407 39.9689 23.0407C41.289 23.0407 42.2899 22.706 43.0071 22.1662C44.0342 21.3951 45.2526 20.9216 46.5373 20.9216H51.1363C50.4438 24.4272 47.5089 27.7276 39.8054 27.7276C31.2058 27.7276 28.1074 22.4701 28.1074 16.8856ZM44.2887 14.6431C44.0435 12.4825 42.7403 10.6904 39.9272 10.6904C37.2776 10.6904 35.7292 12.1169 35.2804 14.6431H44.2872H44.2887Z" fill="#402FEC"/>
<path d="M51.9676 6.6543H58.6687C59.5493 6.6543 60.3698 7.09538 60.8571 7.82795L63.9493 12.4825L66.8842 7.87113C67.367 7.11389 68.2029 6.6543 69.1004 6.6543H75.7691L68.5545 16.8439L76.2164 27.3189H69.3765C68.4835 27.3189 67.6507 26.8655 67.1665 26.1128L64.1113 21.3673L61.1733 26.0805C60.6936 26.85 59.85 27.3189 58.9432 27.3189H52.128L59.4244 16.8439L51.9661 6.6543H51.9676Z" fill="#402FEC"/>
<path d="M78.2075 6.6543H84.9085C85.7892 6.6543 86.6096 7.09538 87.097 7.82795L90.1892 12.4825L93.1241 7.87113C93.6068 7.11389 94.4427 6.6543 95.3403 6.6543H102.009L94.7944 16.8439L102.456 27.3189H95.6164C94.7234 27.3189 93.8906 26.8655 93.4063 26.1128L90.3511 21.3673L87.4132 26.0805C86.9335 26.85 86.0899 27.3189 85.1831 27.3189H78.3679L85.6642 16.8439L78.2059 6.6543H78.2075Z" fill="#402FEC"/>
<path d="M113.102 6.28874C116.241 6.28874 118.482 7.26653 119.95 8.97843H120.561V0.418945H127.857V27.3188H122.558C121.455 27.3188 120.561 26.4243 120.561 25.3216H119.95C118.483 26.9934 116.241 27.9712 113.102 27.9712C106.133 27.9712 103.402 22.9173 103.402 17.0891C103.402 11.261 106.133 6.28874 113.102 6.28874ZM115.548 11.7498C111.961 11.7498 110.698 13.7471 110.698 17.1292C110.698 20.5114 111.961 22.5086 115.548 22.5086C119.136 22.5086 120.562 20.3479 120.562 17.1292C120.562 13.9105 119.299 11.7498 115.548 11.7498Z" fill="#402FEC"/>
<path d="M139.186 9.36548H131.89V27.3188H139.186V9.36548Z" fill="#402FEC"/>
<path d="M139.185 6.90873L133.153 5.22922C132.052 4.9038 131.481 3.96612 131.481 2.86495V0.418945H139.185V6.90873Z" fill="#50FE42"/>
</g>
<path d="M238.318 27.8223V17.7722C238.318 16.9773 238.248 16.1635 238.11 15.3307C237.983 14.4853 237.731 13.703 237.353 12.9838C236.987 12.2646 236.463 11.6841 235.782 11.2425C235.113 10.8009 234.236 10.5801 233.151 10.5801C232.444 10.5801 231.776 10.7 231.145 10.9397C230.514 11.1668 229.959 11.539 229.479 12.0564C229.012 12.5737 228.64 13.2551 228.362 14.1004C228.097 14.9458 227.965 15.9742 227.965 17.1855L225.504 16.2581C225.504 14.4033 225.851 12.7693 226.545 11.3561C227.239 9.93027 228.236 8.8199 229.536 8.02498C230.836 7.23006 232.406 6.8326 234.249 6.8326C235.662 6.8326 236.848 7.05972 237.807 7.51396C238.766 7.9682 239.542 8.56755 240.135 9.312C240.74 10.0438 241.201 10.8451 241.516 11.7157C241.832 12.5863 242.046 13.438 242.16 14.2708C242.274 15.1036 242.33 15.8354 242.33 16.4663V27.8223H238.318ZM223.953 27.8223V0.567871H227.492V15.2739H227.965V27.8223H223.953Z" fill="black"/>
<path d="M211.494 28.371C209.008 28.371 206.983 27.8221 205.418 26.7243C203.854 25.6266 202.895 24.0809 202.541 22.0873L206.592 21.4627C206.844 22.5226 207.424 23.3617 208.333 23.98C209.254 24.5856 210.396 24.8885 211.759 24.8885C212.995 24.8885 213.96 24.6361 214.654 24.1314C215.361 23.6267 215.714 22.9327 215.714 22.0495C215.714 21.5321 215.588 21.1157 215.336 20.8003C215.096 20.4722 214.585 20.1631 213.803 19.8729C213.02 19.5827 211.828 19.2231 210.226 18.7941C208.472 18.3398 207.077 17.854 206.043 17.3367C205.021 16.8068 204.289 16.1948 203.847 15.5008C203.418 14.7942 203.204 13.9425 203.204 12.9457C203.204 11.7092 203.532 10.6304 204.188 9.70926C204.844 8.78816 205.765 8.07525 206.951 7.57054C208.15 7.06583 209.551 6.81348 211.153 6.81348C212.718 6.81348 214.112 7.05952 215.336 7.55162C216.56 8.04371 217.55 8.744 218.307 9.65248C219.064 10.5483 219.519 11.6019 219.67 12.8132L215.62 13.5514C215.481 12.5672 215.02 11.7912 214.238 11.2234C213.456 10.6556 212.44 10.3465 211.191 10.296C209.992 10.2455 209.021 10.4474 208.276 10.9016C207.532 11.3433 207.16 11.9552 207.16 12.7375C207.16 13.1918 207.298 13.5766 207.576 13.8921C207.866 14.2075 208.421 14.5103 209.241 14.8005C210.062 15.0907 211.273 15.4377 212.875 15.8415C214.591 16.2831 215.954 16.7752 216.964 17.3178C217.973 17.8477 218.692 18.4849 219.121 19.2294C219.563 19.9612 219.784 20.8508 219.784 21.898C219.784 23.9169 219.045 25.5004 217.569 26.6486C216.106 27.7969 214.08 28.371 211.494 28.371Z" fill="black"/>
<path d="M187.898 28.3899C186.384 28.3899 185.116 28.1123 184.094 27.5571C183.072 26.9893 182.296 26.2449 181.766 25.3238C181.249 24.3901 180.99 23.368 180.99 22.2576C180.99 21.223 181.173 20.3145 181.539 19.5322C181.905 18.7499 182.447 18.0875 183.167 17.5449C183.886 16.9897 184.769 16.5418 185.816 16.2011C186.725 15.9361 187.753 15.7027 188.901 15.5008C190.05 15.2989 191.255 15.1097 192.516 14.933C193.791 14.7564 195.053 14.5797 196.302 14.4031L194.863 15.198C194.889 13.5955 194.548 12.4095 193.841 11.6398C193.147 10.8575 191.949 10.4663 190.245 10.4663C189.173 10.4663 188.189 10.7187 187.293 11.2234C186.397 11.7155 185.772 12.5356 185.419 13.6839L181.728 12.5483C182.233 10.7944 183.192 9.40012 184.605 8.36546C186.031 7.33081 187.924 6.81348 190.283 6.81348C192.113 6.81348 193.703 7.12892 195.053 7.75981C196.415 8.37808 197.412 9.36227 198.043 10.7124C198.371 11.3811 198.573 12.0877 198.649 12.8322C198.724 13.5766 198.762 14.3778 198.762 15.2358V27.8221H195.261V23.1472L195.942 23.7529C195.097 25.3175 194.018 26.4846 192.706 27.2543C191.406 28.0114 189.804 28.3899 187.898 28.3899ZM188.599 25.1534C189.722 25.1534 190.687 24.9579 191.494 24.5667C192.302 24.1629 192.952 23.6519 193.444 23.0336C193.936 22.4154 194.258 21.7719 194.409 21.1031C194.624 20.4975 194.744 19.8161 194.769 19.059C194.807 18.302 194.826 17.6963 194.826 17.2421L196.113 17.7152C194.863 17.9045 193.728 18.0748 192.706 18.2263C191.684 18.3777 190.756 18.5291 189.924 18.6805C189.103 18.8193 188.372 18.9896 187.728 19.1915C187.185 19.3808 186.7 19.6079 186.271 19.8729C185.854 20.1379 185.52 20.4596 185.268 20.8381C185.028 21.2167 184.908 21.6772 184.908 22.2198C184.908 22.7497 185.04 23.2418 185.305 23.6961C185.57 24.1377 185.974 24.491 186.517 24.756C187.059 25.0209 187.753 25.1534 188.599 25.1534Z" fill="black"/>
<path d="M165.85 28.39C163.125 28.39 160.803 27.797 158.885 26.6109C156.967 25.4122 155.497 23.7467 154.475 21.6143C153.466 19.4819 152.961 17.0088 152.961 14.195C152.961 11.3812 153.466 8.90816 154.475 6.77575C155.497 4.64334 156.967 2.98411 158.885 1.79803C160.803 0.599344 163.125 0 165.85 0C168.992 0 171.591 0.794921 173.648 2.38476C175.717 3.9746 177.156 6.11332 177.963 8.80091L173.951 9.87972C173.421 7.97444 172.474 6.47923 171.112 5.3941C169.762 4.30897 168.008 3.76641 165.85 3.76641C163.919 3.76641 162.311 4.20172 161.024 5.07235C159.737 5.94298 158.765 7.16059 158.109 8.7252C157.465 10.2898 157.144 12.1131 157.144 14.195C157.131 16.2769 157.447 18.1002 158.09 19.6648C158.746 21.2294 159.718 22.447 161.005 23.3177C162.304 24.1883 163.919 24.6236 165.85 24.6236C168.008 24.6236 169.762 24.081 171.112 22.9959C172.474 21.8982 173.421 20.403 173.951 18.5103L177.963 19.5891C177.156 22.2767 175.717 24.4154 173.648 26.0053C171.591 27.5951 168.992 28.39 165.85 28.39Z" fill="black"/>
<defs>
<clipPath id="clip0_460_798">
<rect width="139.185" height="27.5523" fill="white" transform="translate(0 0.418945)"/>
</clipPath>
</defs>
</svg>
