<svg width="240" height="28" viewBox="0 0 240 28" fill="none" xmlns="http://www.w3.org/2000/svg">
<g clip-path="url(#clip0_1_1777)">
<path d="M18.1291 0.223877V14.7565L6.12427 0.223877H0V27.1238H7.29329V12.969L19.3383 27.1238H25.4332V0.223877H18.1291Z" fill="white"/>
<path d="M28.1075 16.6905C28.1075 10.7806 31.6531 5.89011 39.8054 5.89011C48.4467 5.89011 51.2181 11.1476 51.2181 16.8139C51.2181 17.4662 51.178 18.077 51.0962 18.5257H35.2003C35.6074 21.7861 37.3193 22.8456 39.9689 22.8456C41.2891 22.8456 42.29 22.5109 43.0071 21.9711C44.0343 21.2 45.2527 20.7265 46.5374 20.7265H51.1363C50.4439 24.2321 47.509 27.5325 39.8054 27.5325C31.2059 27.5325 28.1075 22.275 28.1075 16.6905ZM44.2888 14.448C44.0435 12.2874 42.7403 10.4953 39.9273 10.4953C37.2777 10.4953 35.7293 11.9218 35.2805 14.448H44.2872H44.2888Z" fill="white"/>
<path d="M51.9676 6.4592H58.6687C59.5493 6.4592 60.3698 6.90028 60.8571 7.63285L63.9493 12.2874L66.8842 7.67603C67.367 6.91879 68.2029 6.4592 69.1004 6.4592H75.7691L68.5545 16.6488L76.2164 27.1238H69.3765C68.4835 27.1238 67.6507 26.6704 67.1665 25.9178L64.1113 21.1723L61.1733 25.8854C60.6936 26.6549 59.85 27.1238 58.9432 27.1238H52.128L59.4244 16.6488L51.9661 6.4592H51.9676Z" fill="white"/>
<path d="M78.2074 6.4592H84.9085C85.7891 6.4592 86.6096 6.90028 87.0969 7.63285L90.1891 12.2874L93.124 7.67603C93.6068 6.91879 94.4427 6.4592 95.3403 6.4592H102.009L94.7943 16.6488L102.456 27.1238H95.6163C94.7234 27.1238 93.8905 26.6704 93.4063 25.9178L90.3511 21.1723L87.4131 25.8854C86.9335 26.6549 86.0899 27.1238 85.183 27.1238H78.3678L85.6642 16.6488L78.2059 6.4592H78.2074Z" fill="white"/>
<path d="M113.102 6.09368C116.241 6.09368 118.482 7.07146 119.95 8.78336H120.561V0.223877H127.857V27.1238H122.558C121.455 27.1238 120.561 26.2293 120.561 25.1266H119.95C118.483 26.7984 116.241 27.7761 113.102 27.7761C106.133 27.7761 103.402 22.7222 103.402 16.894C103.402 11.0659 106.133 6.09368 113.102 6.09368ZM115.548 11.5548C111.961 11.5548 110.698 13.552 110.698 16.9341C110.698 20.3163 111.961 22.3135 115.548 22.3135C119.136 22.3135 120.562 20.1528 120.562 16.9341C120.562 13.7155 119.299 11.5548 115.548 11.5548Z" fill="white"/>
<path d="M139.186 9.17047H131.89V27.1238H139.186V9.17047Z" fill="white"/>
<path d="M139.185 6.71366L133.153 5.03415C132.052 4.70874 131.481 3.77105 131.481 2.66988V0.223877H139.185V6.71366Z" fill="#50FE42"/>
</g>
<path d="M230.419 28C228.6 28 227.046 27.533 225.757 26.5991C224.468 25.6527 223.481 24.3763 222.794 22.7699C222.107 21.1635 221.764 19.3517 221.764 17.3344C221.764 15.3295 222.101 13.5239 222.776 11.9175C223.462 10.3111 224.444 9.04094 225.721 8.10699C226.998 7.17305 228.528 6.70608 230.311 6.70608C232.142 6.70608 233.684 7.16683 234.937 8.08832C236.189 9.00981 237.135 10.2737 237.774 11.8801C238.424 13.4741 238.749 15.2921 238.749 17.3344C238.749 19.3392 238.43 21.1511 237.792 22.7699C237.153 24.3763 236.214 25.6527 234.973 26.5991C233.732 27.533 232.214 28 230.419 28ZM230.69 25.441C232.076 25.441 233.22 25.0923 234.123 24.395C235.027 23.6976 235.702 22.7388 236.147 21.5184C236.593 20.2856 236.816 18.8909 236.816 17.3344C236.816 15.7529 236.593 14.3582 236.147 13.1503C235.702 11.9299 235.027 10.9773 234.123 10.2924C233.232 9.60753 232.106 9.26508 230.744 9.26508C229.347 9.26508 228.191 9.61998 227.275 10.3298C226.36 11.0396 225.679 12.0047 225.233 13.225C224.8 14.4454 224.583 15.8151 224.583 17.3344C224.583 18.866 224.806 20.2483 225.251 21.4811C225.709 22.7014 226.39 23.6665 227.293 24.3763C228.197 25.0861 229.329 25.441 230.69 25.441ZM236.816 27.4396V12.2537H236.527V0.542055H239.201V27.4396H236.816Z" fill="white"/>
<path d="M214.145 27.4396V17.1476C214.145 16.0268 214.043 14.9995 213.838 14.0656C213.633 13.1192 213.302 12.2973 212.844 11.5999C212.398 10.8901 211.814 10.3422 211.091 9.95621C210.381 9.57018 209.513 9.37716 208.489 9.37716C207.55 9.37716 206.719 9.54527 205.996 9.88149C205.285 10.2177 204.683 10.7034 204.189 11.3384C203.707 11.9611 203.34 12.7207 203.087 13.6173C202.834 14.5138 202.707 15.535 202.707 16.6806L200.828 16.251C200.828 14.1839 201.177 12.4467 201.876 11.0396C202.575 9.63244 203.538 8.56774 204.767 7.84549C205.996 7.12325 207.405 6.76212 208.995 6.76212C210.164 6.76212 211.182 6.94891 212.049 7.32249C212.928 7.69606 213.669 8.20039 214.272 8.83547C214.886 9.47056 215.38 10.199 215.753 11.0209C216.127 11.8303 216.398 12.6958 216.566 13.6173C216.735 14.5263 216.819 15.4353 216.819 16.3444V27.4396H214.145ZM200.033 27.4396V7.26645H202.436V12.235H202.707V27.4396H200.033Z" fill="white"/>
<path d="M186.253 28C184.349 28 182.699 27.5641 181.302 26.6925C179.916 25.8208 178.838 24.5942 178.067 23.0127C177.296 21.4312 176.911 19.5758 176.911 17.4464C176.911 15.2423 177.29 13.3371 178.049 11.7307C178.808 10.1243 179.874 8.88527 181.247 8.01359C182.633 7.14191 184.265 6.70607 186.144 6.70607C188.072 6.70607 189.716 7.16682 191.077 8.08831C192.438 8.99735 193.468 10.3049 194.167 12.0109C194.866 13.7169 195.185 15.7529 195.125 18.1189H192.414V17.1476C192.366 14.5325 191.818 12.5588 190.77 11.2264C189.734 9.89393 188.216 9.22772 186.216 9.22772C184.12 9.22772 182.512 9.93129 181.392 11.3384C180.284 12.7456 179.73 14.7504 179.73 17.353C179.73 19.8933 180.284 21.8671 181.392 23.2742C182.512 24.6689 184.096 25.3663 186.144 25.3663C187.542 25.3663 188.758 25.0363 189.794 24.3763C190.842 23.7038 191.667 22.7388 192.27 21.4811L194.745 22.471C193.974 24.2268 192.836 25.5904 191.33 26.5617C189.836 27.5206 188.144 28 186.253 28ZM178.79 18.1189V15.8214H193.697V18.1189H178.79Z" fill="white"/>
<path d="M163.315 28C161.496 28 159.858 27.6887 158.4 27.0661C156.954 26.431 155.756 25.5344 154.804 24.3763C153.864 23.2182 153.25 21.8422 152.961 20.2483L155.671 19.7813C156.105 21.5247 157.021 22.8944 158.418 23.8907C159.815 24.8744 161.484 25.3663 163.423 25.3663C164.7 25.3663 165.845 25.1608 166.856 24.7499C167.868 24.3265 168.663 23.7288 169.242 22.9567C169.82 22.1846 170.109 21.2694 170.109 20.2109C170.109 19.5136 169.988 18.9221 169.748 18.4364C169.507 17.9383 169.187 17.5274 168.79 17.2036C168.392 16.8798 167.959 16.6121 167.489 16.4004C167.019 16.1763 166.561 15.9957 166.116 15.8587L159.52 13.8227C158.725 13.5861 157.99 13.2873 157.316 12.9262C156.641 12.5526 156.051 12.1105 155.545 11.6C155.051 11.0769 154.666 10.4668 154.388 9.76943C154.111 9.07208 153.973 8.27512 153.973 7.37853C153.973 5.85932 154.358 4.54557 155.129 3.43729C155.9 2.32901 156.954 1.47601 158.291 0.878289C159.629 0.280565 161.152 -0.0120705 162.863 0.000381147C164.598 0.000381147 166.146 0.317922 167.507 0.953003C168.88 1.58808 170.013 2.49712 170.904 3.68012C171.795 4.85066 172.386 6.23912 172.675 7.84551L169.892 8.36851C169.711 7.19797 169.296 6.18309 168.645 5.32386C167.995 4.46463 167.164 3.80464 166.152 3.3439C165.152 2.8707 164.05 2.62788 162.845 2.61542C161.677 2.61542 160.635 2.82089 159.719 3.23183C158.816 3.63031 158.099 4.17822 157.569 4.87557C157.039 5.57291 156.774 6.36987 156.774 7.26646C156.774 8.1755 157.015 8.90397 157.496 9.45189C157.99 9.9998 158.593 10.4294 159.303 10.7407C160.026 11.052 160.725 11.3073 161.399 11.5066L166.495 13.0569C167.025 13.2063 167.645 13.4243 168.356 13.7107C169.079 13.9846 169.778 14.3831 170.452 14.9061C171.139 15.4167 171.705 16.0891 172.151 16.9234C172.597 17.7578 172.819 18.8162 172.819 20.0988C172.819 21.3441 172.578 22.4586 172.097 23.4424C171.627 24.4261 170.958 25.2542 170.091 25.9266C169.236 26.5991 168.23 27.1096 167.073 27.4583C165.929 27.8194 164.676 28 163.315 28Z" fill="white"/>
<defs>
<clipPath id="clip0_1_1777">
<rect width="139.185" height="27.5523" fill="white" transform="translate(0 0.223877)"/>
</clipPath>
</defs>
</svg>
