<svg width="32" height="32" viewBox="0 0 32 32" fill="none" xmlns="http://www.w3.org/2000/svg">
<path d="M3.82906 11.3086C3.27635 11.3086 3 11.023 3 10.4519V6.95711C3 5.64261 3.33525 4.65446 4.00575 3.99268C4.67625 3.33089 5.67294 3 6.99582 3H10.4888C11.0596 3 11.345 3.2765 11.345 3.8295C11.345 4.39156 11.0596 4.67259 10.4888 4.67259H7.03659C6.26642 4.67259 5.67747 4.87204 5.26973 5.27092C4.87106 5.6698 4.67172 6.2636 4.67172 7.0523V10.4519C4.67172 11.023 4.39083 11.3086 3.82906 11.3086ZM28.1573 11.3086C27.6046 11.3086 27.3283 11.023 27.3283 10.4519V7.0523C27.3283 6.2636 27.1199 5.6698 26.7031 5.27092C26.2863 4.87204 25.7019 4.67259 24.9498 4.67259H21.5112C20.9404 4.67259 20.655 4.39156 20.655 3.8295C20.655 3.2765 20.9404 3 21.5112 3H24.9906C26.3225 3 27.3238 3.33543 27.9943 4.00628C28.6648 4.66806 29 5.65167 29 6.95711V10.4519C29 11.023 28.7191 11.3086 28.1573 11.3086ZM6.99582 29C5.67294 29 4.67625 28.6646 4.00575 27.9937C3.33525 27.3319 3 26.3438 3 25.0293V21.5481C3 20.977 3.27635 20.6914 3.82906 20.6914C4.39083 20.6914 4.67172 20.977 4.67172 21.5481V24.9477C4.67172 25.7364 4.87106 26.3302 5.26973 26.7291C5.67747 27.128 6.26642 27.3274 7.03659 27.3274H10.4888C11.0596 27.3274 11.345 27.6084 11.345 28.1705C11.345 28.7235 11.0596 29 10.4888 29H6.99582ZM21.5112 29C20.9404 29 20.655 28.7235 20.655 28.1705C20.655 27.6084 20.9404 27.3274 21.5112 27.3274H24.9498C25.7019 27.3274 26.2863 27.128 26.7031 26.7291C27.1199 26.3302 27.3283 25.7364 27.3283 24.9477V21.5481C27.3283 20.977 27.6046 20.6914 28.1573 20.6914C28.7191 20.6914 29 20.977 29 21.5481V25.0293C29 26.3438 28.6648 27.3319 27.9943 27.9937C27.3238 28.6646 26.3225 29 24.9906 29H21.5112ZM10.9509 14.9121C10.6881 14.9121 10.4706 14.8305 10.2985 14.6674C10.1354 14.5042 10.0538 14.2821 10.0538 14.001V12.1653C10.0538 11.8933 10.1354 11.6757 10.2985 11.5126C10.4706 11.3403 10.6881 11.2542 10.9509 11.2542C11.2136 11.2542 11.4311 11.3403 11.6032 11.5126C11.7754 11.6757 11.8615 11.8933 11.8615 12.1653V14.001C11.8615 14.2821 11.7754 14.5042 11.6032 14.6674C11.4311 14.8305 11.2136 14.9121 10.9509 14.9121ZM14.8923 18.0941C14.6114 18.0941 14.394 18.0307 14.2399 17.9038C14.0859 17.7678 14.0089 17.5865 14.0089 17.3598C14.0089 17.1604 14.0723 16.9972 14.1992 16.8703C14.3351 16.7343 14.5027 16.6663 14.702 16.6663H15.1641C15.2638 16.6663 15.3499 16.6346 15.4224 16.5711C15.5039 16.5077 15.5447 16.4125 15.5447 16.2856V11.9341C15.5447 11.7165 15.6081 11.5488 15.735 11.431C15.8618 11.304 16.0294 11.2406 16.2378 11.2406C16.4553 11.2406 16.6275 11.304 16.7543 11.431C16.8812 11.5488 16.9446 11.7165 16.9446 11.9341V16.1632C16.9446 16.7978 16.7815 17.2782 16.4553 17.6046C16.1291 17.931 15.6489 18.0941 15.0146 18.0941C14.9965 18.0941 14.9739 18.0941 14.9467 18.0941C14.9286 18.0941 14.9104 18.0941 14.8923 18.0941ZM20.9676 14.9121C20.6958 14.9121 20.4783 14.8305 20.3152 14.6674C20.1521 14.5042 20.0706 14.2821 20.0706 14.001V12.1653C20.0706 11.8933 20.1521 11.6757 20.3152 11.5126C20.4783 11.3403 20.6958 11.2542 20.9676 11.2542C21.2304 11.2542 21.4433 11.3403 21.6064 11.5126C21.7785 11.6757 21.8646 11.8933 21.8646 12.1653V14.001C21.8646 14.2821 21.7785 14.5042 21.6064 14.6674C21.4433 14.8305 21.2304 14.9121 20.9676 14.9121ZM15.8981 22.4864C15.1098 22.4864 14.3305 22.3323 13.5604 22.0241C12.7902 21.7068 12.1378 21.249 11.6032 20.6506C11.5308 20.5781 11.4719 20.501 11.4266 20.4195C11.3903 20.3288 11.3722 20.2336 11.3722 20.1339C11.3722 19.9254 11.4401 19.7577 11.5761 19.6308C11.712 19.5038 11.8796 19.4404 12.0789 19.4404C12.2058 19.4404 12.31 19.4676 12.3915 19.522C12.4821 19.5764 12.5773 19.6489 12.6769 19.7395C13.0756 20.1475 13.5649 20.4738 14.1448 20.7186C14.7247 20.9634 15.3091 21.0858 15.8981 21.0858C16.5233 21.0858 17.1213 20.9634 17.6921 20.7186C18.272 20.4648 18.7568 20.1384 19.1464 19.7395C19.3366 19.5401 19.5315 19.4404 19.7308 19.4404C19.9211 19.4404 20.0842 19.5038 20.2201 19.6308C20.356 19.7577 20.4239 19.9254 20.4239 20.1339C20.4239 20.2517 20.4058 20.356 20.3696 20.4467C20.3333 20.5282 20.2835 20.6008 20.2201 20.6642C19.6402 21.2354 18.9697 21.6841 18.2086 22.0105C17.4565 22.3278 16.6864 22.4864 15.8981 22.4864Z" fill="#202020"/>
</svg>
