<svg width="200" height="200" viewBox="0 0 200 200" fill="none" xmlns="http://www.w3.org/2000/svg">
<path fill-rule="evenodd" clip-rule="evenodd" d="M129.366 12.6144C137.808 11.1752 146.202 15.4334 150.031 23.0919C150.61 24.2489 150.911 25.5249 150.911 26.8185V44.4445H152.777C169.657 44.4445 183.333 58.12 183.333 75.0001V85.2072C189.901 88.3289 194.444 95.0247 194.444 102.778V119.444C194.444 127.198 189.901 133.894 183.333 137.016V147.222C183.333 164.102 169.657 177.777 152.777 177.777H47.2227C30.3425 177.777 16.667 164.102 16.667 147.222V75.0001C16.667 74.387 16.6871 73.7782 16.7227 73.174C16.6869 72.8606 16.667 72.5418 16.667 72.2189C16.6671 48.9014 33.4726 28.9881 56.4512 25.0597H56.4531L129.364 12.6154L129.366 12.6144ZM47.2227 61.1105C39.5473 61.1105 33.3331 67.3248 33.333 75.0001V147.222C33.333 154.897 39.5473 161.11 47.2227 161.11H152.777C160.453 161.11 166.667 154.897 166.667 147.222V138.89H144.444C129.109 138.89 116.667 126.447 116.667 111.111C116.667 95.7617 129.112 83.3342 144.444 83.3341H166.667V75.0001C166.667 67.3248 160.453 61.1105 152.777 61.1105H47.2227ZM144.444 100C138.31 100 133.333 104.973 133.333 111.111C133.333 117.242 138.313 122.223 144.444 122.223H174.961C174.974 122.223 174.987 122.222 175 122.222C175.004 122.222 175.008 122.222 175.013 122.222C176.538 122.215 177.777 120.971 177.777 119.444V102.778C177.777 101.248 176.531 100 175 100H144.444ZM134.244 29.5206C133.655 29.1028 132.911 28.9166 132.168 29.0431L59.2588 41.4874L59.2598 41.4884C56.0852 42.0311 53.0925 43.0438 50.3457 44.4445H134.244V29.5206Z" fill="#8d8d8e"/>
</svg>
