<svg width="200" height="200" viewBox="0 0 200 200" fill="none" xmlns="http://www.w3.org/2000/svg">
<path fill-rule="evenodd" clip-rule="evenodd" d="M132.169 29.0441C133.371 28.8396 134.576 29.4487 135.125 30.5452L132.169 29.0441ZM132.169 29.0441L59.26 41.4881C44.2842 44.0494 33.3334 57.0256 33.3334 72.2184C33.3334 76.8207 29.6024 80.5517 25.0001 80.5517C20.3977 80.5517 16.6667 76.8207 16.6667 72.2184C16.6667 48.9007 33.4726 28.9882 56.4513 25.0597L129.365 12.615C137.806 11.1756 146.202 15.4328 150.031 23.0916C152.09 27.2081 150.421 32.2137 146.305 34.272C142.188 36.3302 137.182 34.6616 135.125 30.5452" fill="#3A29E9"/>
<path d="M183.333 127.778H155.556C146.356 127.778 138.889 120.311 138.889 111.111C138.889 101.911 146.356 94.4446 155.556 94.4446H183.333C189.467 94.4446 194.445 99.4224 194.445 105.556V116.667C194.445 122.8 189.467 127.778 183.333 127.778Z" fill="#3A29E9"/>
<path d="M183.333 144.445H155.556C137.151 144.445 122.222 129.516 122.222 111.111C122.222 92.7065 137.151 77.7779 155.556 77.7779H183.333V75.0001C183.333 58.1446 169.633 44.4446 152.778 44.4446H47.2223C30.3667 44.4446 16.6667 58.1446 16.6667 75.0001V147.222C16.6667 164.078 30.3667 177.778 47.2223 177.778H152.778C169.633 177.778 183.333 164.078 183.333 147.222V144.445Z" fill="#3A29E9"/>
<path d="M134.244 46.0002V29.5207C133.655 29.1027 132.911 28.9166 132.168 29.0431L59.2589 41.4875L59.26 41.4881C44.2832 44.0486 33.3334 57.025 33.3334 72.2184C33.3334 76.8207 29.6024 80.5517 25.0001 80.5517C20.3977 80.5517 16.6667 76.8207 16.6667 72.2184C16.6667 48.9007 33.4726 28.9882 56.4513 25.0597L56.4532 25.0597L129.365 12.615L129.366 12.6144C137.808 11.1752 146.202 15.433 150.031 23.0916C150.61 24.2487 150.911 25.5249 150.911 26.8185V46.0002C150.911 50.6024 147.18 54.333 142.578 54.3332C137.976 54.3332 134.244 50.6025 134.244 46.0002Z" fill="#3A29E9"/>
</svg>
