<svg width="24" height="24" viewBox="0 0 24 24" fill="none" xmlns="http://www.w3.org/2000/svg">
<path d="M22.6666 7.66667C22.6666 5.644 21.0226 4 18.9999 4H4.99992C2.97725 4 1.33325 5.644 1.33325 7.66667V8.66667H22.6666V7.66667Z" fill="black"/>
<path d="M1.33325 16.3337C1.33325 18.3563 2.97725 20.0003 4.99992 20.0003H18.9999C21.0226 20.0003 22.6666 18.3563 22.6666 16.3337V10.667H1.33325V16.3337ZM5.66658 14.0003H9.66658C10.2186 14.0003 10.6666 14.4483 10.6666 15.0003C10.6666 15.5523 10.2186 16.0003 9.66658 16.0003H5.66658C5.11458 16.0003 4.66658 15.5523 4.66658 15.0003C4.66658 14.4483 5.11458 14.0003 5.66658 14.0003Z" fill="black"/>
</svg>
