<svg width="200" height="200" viewBox="0 0 200 200" fill="none" xmlns="http://www.w3.org/2000/svg">
<path fill-rule="evenodd" clip-rule="evenodd" d="M6.1576 150.845C14.9477 127.516 37.4301 110.872 63.8891 110.872C90.3481 110.872 112.831 127.516 121.621 150.845C125.622 161.467 119.192 172.398 109.4 175.675C98.0686 179.46 82.518 183.083 63.9002 183.083C45.2827 183.083 29.7257 179.462 18.3847 175.677C8.5737 172.408 2.16554 161.463 6.1576 150.845Z" fill="#1C1F21"/>
<path d="M139.472 155.304C155.388 154.624 168.781 151.39 178.846 148.028C188.638 144.751 195.068 133.82 191.066 123.198C182.276 99.8684 159.794 83.2246 133.335 83.2246C117.314 83.2246 102.751 89.3271 91.8022 99.3209C112.746 107.315 129.333 124.038 137.219 144.965C138.53 148.448 139.256 151.918 139.472 155.304Z" fill="#1C1F21"/>
<path d="M63.8889 94.4551C77.6964 94.4551 88.8889 83.2675 88.8889 69.4551C88.8889 55.6425 77.6964 44.4551 63.8889 44.4551C50.0815 44.4551 38.8889 55.6425 38.8889 69.4551C38.8889 83.2675 50.0815 94.4551 63.8889 94.4551Z" fill="#1C1F21"/>
<path d="M133.333 66.6777C147.141 66.6777 158.333 55.4902 158.333 41.6777C158.333 27.8652 147.141 16.6777 133.333 16.6777C119.525 16.6777 108.333 27.8652 108.333 41.6777C108.333 55.4902 119.525 66.6777 133.333 66.6777Z" fill="#1C1F21"/>
</svg>
