<svg width="200" height="200" viewBox="0 0 200 200" fill="none" xmlns="http://www.w3.org/2000/svg">
<path d="M63.889 91.6778C76.1623 91.6778 86.1112 81.7334 86.1112 69.4556C86.1112 57.1778 76.1623 47.2334 63.889 47.2334C51.6156 47.2334 41.6667 57.1778 41.6667 69.4556C41.6667 81.7334 51.6156 91.6778 63.889 91.6778Z" stroke="#1C1F21" stroke-width="16.6667" stroke-linecap="round" stroke-linejoin="round"/>
<path d="M106.765 168.032C112.576 166.088 115.987 159.766 113.831 154.044C106.22 133.844 86.7649 119.466 63.8982 119.466C41.0315 119.466 21.576 133.844 13.9649 154.044C11.8093 159.777 15.2204 166.099 21.0315 168.032C31.7204 171.599 46.376 175.01 63.9093 175.01C81.4426 175.01 96.0871 171.599 106.765 168.032Z" stroke="#1C1F21" stroke-width="16.6667" stroke-linecap="round" stroke-linejoin="round"/>
<path d="M133.333 63.8995C145.607 63.8995 155.556 53.9551 155.556 41.6773C155.556 29.3995 145.607 19.4551 133.333 19.4551C121.06 19.4551 111.111 29.3995 111.111 41.6773C111.111 53.9551 121.06 63.8995 133.333 63.8995Z" stroke="#1C1F21" stroke-width="16.6667" stroke-linecap="round" stroke-linejoin="round"/>
<path d="M146.155 146.531C158.027 145.388 168.263 142.91 176.2 140.256C182.011 138.312 185.422 131.988 183.267 126.267C175.655 106.066 156.2 91.6885 133.333 91.6885C124.009 91.6885 115.322 94.1951 107.698 98.3996" stroke="#1C1F21" stroke-width="16.6667" stroke-linecap="round" stroke-linejoin="round"/>
</svg>
